<?xml version="1.0" encoding="utf-8"?>
<!-- Generator: Adobe Illustrator 18.0.0, SVG Export Plug-In . SVG Version: 6.00 Build 0)  -->
<!DOCTYPE svg PUBLIC "-//W3C//DTD SVG 1.1//EN" "http://www.w3.org/Graphics/SVG/1.1/DTD/svg11.dtd">
<svg version="1.1" id="Ebene_1" xmlns="http://www.w3.org/2000/svg" xmlns:xlink="http://www.w3.org/1999/xlink" x="0px" y="0px"
	 viewBox="0 0 1280 1024" enable-background="new 0 0 1280 1024" xml:space="preserve">
<g id="phone-icon">
	<path d="M768,944L768,944c-99.2,0-201.6-108.8-313.6-329.6c-176-352-99.2-448-9.6-496c0,0,69.6-35.9,73.6-38.4
		c6.9-4.2,17.9-1.7,22.4,6.4L659.2,320c3.8,8,1.8,16.5-9.6,22.4l-70.4,35.2c-12.8,6.4-12.8,35.2-3.2,76.8
		c22.4,92.8,99.2,204.8,137.6,204.8l0,0c4,0,3.2,0,6.4,0s28.8-16,48-25.6c12.8-6.4,22.4-9.6,22.4-9.6c6.4-3.2,16,0,19.2,6.4L928,864
		c3.2,6.4,1,15.7-8.2,21.1l-70.9,37.7C830.9,932.5,803.2,944,768,944z M518.4,118.4c-22.4,12.8-57.6,28.8-57.6,28.8
		c-48,25.6-160,86.4,25.6,454.4C588.8,806.4,684.8,912,771.2,912c25.6,0,49.3-8.4,65.3-18c0,0,39.8-21.7,59.2-34.2L793.6,656
		l-6.4,3.2c-19.2,9.6-42,21.2-48.8,24.6c-6.4,3.2-12,4.2-18.4,4.2l0,0c-67.2,0-147.2-137.6-169.6-227.2c-19.2-73.6,0-102.4,19.2-112
		l57.6-28.8L518.4,118.4z"/>
</g>
</svg>
