<?xml version="1.0" encoding="utf-8"?>
<!-- Generator: Adobe Illustrator 18.0.0, SVG Export Plug-In . SVG Version: 6.00 Build 0)  -->
<!DOCTYPE svg PUBLIC "-//W3C//DTD SVG 1.1//EN" "http://www.w3.org/Graphics/SVG/1.1/DTD/svg11.dtd">
<svg version="1.1" id="Ebene_1" xmlns="http://www.w3.org/2000/svg" xmlns:xlink="http://www.w3.org/1999/xlink" x="0px" y="0px"
	 viewBox="0 0 1280 1024" enable-background="new 0 0 1280 1024" xml:space="preserve">
<g>
	<path fill="#1D1D1B" d="M889.6,784H390.4C291.2,784,208,700.8,208,598.4s83.2-185.6,182.4-185.6h3.2
		C435.2,310.4,531.2,243.2,640,243.2s204.8,67.2,246.4,169.6h3.2c99.2,0,182.4,83.2,182.4,185.6S988.8,784,889.6,784z M390.4,441.6
		C307.2,441.6,240,512,240,595.2c0,86.4,67.2,153.6,150.4,153.6h499.2c83.2,0,150.4-70.4,150.4-153.6c0-86.4-67.2-153.6-150.4-153.6
		c-3.2,0-3.2,0-6.4,0s-3.2,0-6.4,0c0,0-6.3-0.4-12.8,0c-20.5-101.2-124.8-167.8-224-167.8s-194,65.7-224,171
		C408.5,443.5,401.3,441.8,390.4,441.6z"/>
</g>
</svg>
