<?xml version="1.0" encoding="utf-8"?>
<!-- Generator: Adobe Illustrator 18.0.0, SVG Export Plug-In . SVG Version: 6.00 Build 0)  -->
<!DOCTYPE svg PUBLIC "-//W3C//DTD SVG 1.1//EN" "http://www.w3.org/Graphics/SVG/1.1/DTD/svg11.dtd">
<svg version="1.1" id="Ebene_1" xmlns="http://www.w3.org/2000/svg" xmlns:xlink="http://www.w3.org/1999/xlink" x="0px" y="0px"
	 viewBox="0 0 1280 1024" enable-background="new 0 0 1280 1024" xml:space="preserve">
<path fill="#020202" d="M886.4,144h-67.2v-16c0-25.6-25.6-48-57.6-48h-240c-32,0-57.6,22.4-57.6,48v16h-70.4
	c-32,0-57.6,25.6-57.6,57.6v684.8c0,32,25.6,57.6,57.6,57.6h492.8c32,0,57.6-25.6,57.6-60.8V201.6C944,169.6,918.4,144,886.4,144z
	 M492.8,128c0-9.6,12.8-16,25.6-16h240c12.8,0,25.6,6.4,25.6,16v80H496h-3.2V128z M912,883.2c0,12.8-12.8,25.6-25.6,25.6H393.6
	c-12.8,0-25.6-9.6-25.6-25.6V201.6c0-12.8,12.8-25.6,25.6-25.6H464v64h352h3.2v-64h67.2c12.8,0,25.6,9.6,25.6,25.6V883.2z"/>
</svg>
