<?xml version="1.0" encoding="utf-8"?>
<!-- Generator: Adobe Illustrator 18.0.0, SVG Export Plug-In . SVG Version: 6.00 Build 0)  -->
<!DOCTYPE svg PUBLIC "-//W3C//DTD SVG 1.1//EN" "http://www.w3.org/Graphics/SVG/1.1/DTD/svg11.dtd">
<svg version="1.1" id="Ebene_1" xmlns="http://www.w3.org/2000/svg" xmlns:xlink="http://www.w3.org/1999/xlink" x="0px" y="0px"
	 viewBox="0 0 1280 1024" enable-background="new 0 0 1280 1024" xml:space="preserve">
<g>
	<path fill="#1D1D1B" d="M988.8,620.8L883.2,515.2l-22.4,22.4l105.6,105.6c54.4,54.4,54.4,140.8,0,195.2
		c-25.6,28.8-60.8,41.6-96,41.6s-70.4-16-96-41.6L588.8,652.8c-25.6-25.6-41.6-57.6-38.4-92.8c3.2-38.4,22.4-76.8,57.6-112l-0.1-0.1
		c2.5-2.8,4-6.5,4-10.5c0-8.8-7.1-15.9-15.9-15.9c-5.2,0-9.7,2.5-12.6,6.3c-40.2,41.1-61.9,88.2-65,132.2
		c-3.2,44.8,12.8,83.2,48,118.4L752,864c32,28.8,73.6,48,118.4,48s89.6-16,118.4-51.2C1056,793.6,1056,688,988.8,620.8z"/>
	<path fill="#1D1D1B" d="M412.8,140.8c35.2,0,70.4,16,96,41.6L694.4,368c57.5,60.7,51.2,143.7-15.6,210.8c-3.4,2.9-5.6,7.2-5.6,12.1
		c0,8.8,7.1,15.9,15.9,15.9c4.7,0,8.8-2,11.7-5.2l0,0c92.8-92.8,73.6-195.2,9.6-252.8L524.8,163.2c-32-32-73.6-51.2-118.4-51.2
		S320,131.2,288,163.2c-28.8,28.8-48,73.6-48,118.4S256,368,288,400l115.2,105.6l22.4-22.4L316.8,374.4
		c-28.8-25.6-41.6-60.8-41.6-96c0-35.2,16-70.4,41.6-96C342.4,153.6,377.6,140.8,412.8,140.8z"/>
</g>
</svg>
