<?xml version="1.0" encoding="utf-8"?>
<!-- Generator: Adobe Illustrator 18.0.0, SVG Export Plug-In . SVG Version: 6.00 Build 0)  -->
<!DOCTYPE svg PUBLIC "-//W3C//DTD SVG 1.1//EN" "http://www.w3.org/Graphics/SVG/1.1/DTD/svg11.dtd">
<svg version="1.1" id="Ebene_1" xmlns="http://www.w3.org/2000/svg" xmlns:xlink="http://www.w3.org/1999/xlink" x="0px" y="0px"
	 viewBox="0 0 1280 1024" enable-background="new 0 0 1280 1024" xml:space="preserve">
<path fill="#1D1D1B" d="M640,80c-236.8,0-432,195.2-432,432s195.2,432,432,432s432-195.2,432-432S876.8,80,640,80z M1039.7,496
	H863.9c-3-165.2-51.9-303.4-123-371.2C907.9,168.3,1032.6,317.1,1039.7,496z M624,113.4V496H448.2
	C452.1,296.5,528.4,130.3,624,113.4z M624,528v382.6C528.4,893.7,452.1,727.5,448.2,528H624z M656,910.6V528h175.8
	C827.9,727.5,751.6,893.7,656,910.6z M656,496V113.4c95.6,16.8,171.9,183.1,175.8,382.6H656z M539.2,124.8
	c-71.1,67.7-120.1,205.9-123,371.2H240.3C247.4,317.1,372.1,168.3,539.2,124.8z M240.3,528h175.8c3,165.2,51.9,303.4,123,371.2
	C372.1,855.7,247.4,706.9,240.3,528z M740.8,899.2c71.1-67.7,120.1-205.9,123-371.2h175.8C1032.6,706.9,907.9,855.7,740.8,899.2z"/>
</svg>
