<?xml version="1.0" encoding="utf-8"?>
<!-- Generator: Adobe Illustrator 18.0.0, SVG Export Plug-In . SVG Version: 6.00 Build 0)  -->
<!DOCTYPE svg PUBLIC "-//W3C//DTD SVG 1.1//EN" "http://www.w3.org/Graphics/SVG/1.1/DTD/svg11.dtd">
<svg version="1.1" id="Ebene_1" xmlns="http://www.w3.org/2000/svg" xmlns:xlink="http://www.w3.org/1999/xlink" x="0px" y="0px"
	 viewBox="0 0 1280 1024" enable-background="new 0 0 1280 1024" xml:space="preserve">
<path fill="#1D1D1B" d="M889.6,256h-3.2C844.8,153.6,748.8,86.4,640,86.4S435.2,153.6,393.6,256h-3.2C291.2,256,208,342.4,208,444.8
	s83.2,185.6,182.4,185.6h124.8v-32H390.4C307.2,598.4,240,528,240,444.8s67.2-153.6,150.4-153.6c3.2,0,3.2,0,6.4,0H416l3.2-12.8
	c32-96,121.6-160,220.8-160s188.8,64,220.8,160l3.2,12.8l19.2-3.2c3.2,0,3.2,0,6.4,0c83.2,0,150.4,73.6,150.4,156.8
	s-67.2,153.6-150.4,153.6H764.8v32h124.8c99.2,0,182.4-83.2,182.4-188.8C1072,339.2,988.8,256,889.6,256z"/>
<polygon fill="#1D1D1B" points="796.8,483.2 816,457.6 640,326.4 464,457.6 483.2,483.2 624,376.9 624,896 656,896 656,376.9 "/>
</svg>
