<?xml version="1.0" encoding="utf-8"?>
<!-- Generator: Adobe Illustrator 18.0.0, SVG Export Plug-In . SVG Version: 6.00 Build 0)  -->
<!DOCTYPE svg PUBLIC "-//W3C//DTD SVG 1.1//EN" "http://www.w3.org/Graphics/SVG/1.1/DTD/svg11.dtd">
<svg version="1.1" id="Ebene_1" xmlns="http://www.w3.org/2000/svg" xmlns:xlink="http://www.w3.org/1999/xlink" x="0px" y="0px"
	 viewBox="0 0 1280 1024" enable-background="new 0 0 1280 1024" xml:space="preserve">
<g>
	<path fill="#1D1D1B" d="M1014.4,176H960v32h54.4c12.8,0,25.6,12.8,25.6,25.6v620.8c0,12.8-12.8,25.6-25.6,25.6H265.6
		c-12.8,0-25.6-12.8-25.6-25.6V233.6c0-12.8,12.8-25.6,25.6-25.6H320v-32h-54.4c-32,0-57.6,25.6-57.6,57.6v620.8
		c0,32,25.6,57.6,57.6,57.6h748.8c32,0,57.6-25.6,57.6-57.6V233.6C1072,201.6,1046.4,176,1014.4,176z"/>
	<rect x="512" y="176" fill="#1D1D1B" width="256" height="32"/>
	<path fill="#1D1D1B" d="M416,304c9.6,0,16-6.4,16-16V128c0-9.6-6.4-16-16-16c-9.6,0-16,6.4-16,16v160C400,297.6,406.4,304,416,304z
		"/>
	<path fill="#1D1D1B" d="M864,304c9.6,0,16-6.4,16-16V128c0-9.6-6.4-16-16-16s-16,6.4-16,16v160C848,297.6,854.4,304,864,304z"/>
	<rect x="400" y="544" fill="#1D1D1B" width="32" height="96"/>
	<rect x="560" y="544" fill="#1D1D1B" width="32" height="96"/>
	<rect x="720" y="544" fill="#1D1D1B" width="32" height="96"/>
	<rect x="880" y="544" fill="#1D1D1B" width="32" height="96"/>
	<rect x="400" y="704" fill="#1D1D1B" width="32" height="96"/>
	<rect x="560" y="704" fill="#1D1D1B" width="32" height="96"/>
	<rect x="720" y="704" fill="#1D1D1B" width="32" height="96"/>
	<rect x="880" y="704" fill="#1D1D1B" width="32" height="96"/>
</g>
</svg>
