<?xml version="1.0" encoding="utf-8"?>
<!-- Generator: Adobe Illustrator 18.0.0, SVG Export Plug-In . SVG Version: 6.00 Build 0)  -->
<!DOCTYPE svg PUBLIC "-//W3C//DTD SVG 1.1//EN" "http://www.w3.org/Graphics/SVG/1.1/DTD/svg11.dtd">
<svg version="1.1" id="Ebene_1" xmlns="http://www.w3.org/2000/svg" xmlns:xlink="http://www.w3.org/1999/xlink" x="0px" y="0px"
	 viewBox="0 0 1280 1024" enable-background="new 0 0 1280 1024" xml:space="preserve">
<g>
	<path fill="#1D1D1B" d="M784,240c-70.4,0-128,57.6-128,128s57.6,128,128,128s128-57.6,128-128S854.4,240,784,240z M784,464
		c-54.4,0-96-41.6-96-96c0-54.4,41.6-96,96-96s96,41.6,96,96C880,422.4,838.4,464,784,464z"/>
	<path fill="#1D1D1B" d="M985.6,112H294.4c-28.8,0-54.4,25.6-54.4,54.4v691.2c0,28.8,25.6,54.4,54.4,54.4h691.2
		c28.8,0,54.4-25.6,54.4-54.4V166.4C1040,137.6,1014.4,112,985.6,112z M272,857.6V675.1L448,496l381,384H294.4
		C281.6,880,272,870.4,272,857.6z M1008,857.6c0,12.8-9.6,22.4-22.4,22.4H880L448,451.2L272,624.5V166.4c0-12.8,9.6-22.4,22.4-22.4
		h691.2c12.8,0,22.4,9.6,22.4,22.4V857.6z"/>
</g>
</svg>
