<?xml version="1.0" encoding="utf-8"?>
<!-- Generator: Adobe Illustrator 18.0.0, SVG Export Plug-In . SVG Version: 6.00 Build 0)  -->
<!DOCTYPE svg PUBLIC "-//W3C//DTD SVG 1.1//EN" "http://www.w3.org/Graphics/SVG/1.1/DTD/svg11.dtd">
<svg version="1.1" id="Ebene_1" xmlns="http://www.w3.org/2000/svg" xmlns:xlink="http://www.w3.org/1999/xlink" x="0px" y="0px"
	 viewBox="0 0 1280 1024" enable-background="new 0 0 1280 1024" xml:space="preserve">
<g>
	<path fill="#1D1D1B" d="M636.8,268.8c-169.6,0-323.2,64-425.6,172.8l22.4,22.4c96-102.4,246.4-163.2,403.2-163.2
		c160,0,313.6,60.8,406.4,166.4l22.4-22.4C966.4,336,806.4,268.8,636.8,268.8z"/>
	<path fill="#1D1D1B" d="M646.4,470.4c-115.2,0-220.8,41.6-291.2,118.4l22.4,22.4c64-67.2,163.2-108.8,268.8-108.8
		c108.8,0,208,41.6,272,112l22.4-22.4C870.4,515.2,761.6,470.4,646.4,470.4z"/>
	<path fill="#1D1D1B" d="M636.8,662.4c-64,0-118.4,22.4-156.8,64l22.4,22.4c28.8-35.2,80-54.4,131.2-54.4
		c54.4,0,102.4,19.2,134.4,54.4l25.6-22.4C758.4,684.8,700.8,662.4,636.8,662.4z"/>
</g>
</svg>
