<?xml version="1.0" encoding="utf-8"?>
<!-- Generator: Adobe Illustrator 18.0.0, SVG Export Plug-In . SVG Version: 6.00 Build 0)  -->
<!DOCTYPE svg PUBLIC "-//W3C//DTD SVG 1.1//EN" "http://www.w3.org/Graphics/SVG/1.1/DTD/svg11.dtd">
<svg version="1.1" id="Ebene_1" xmlns="http://www.w3.org/2000/svg" xmlns:xlink="http://www.w3.org/1999/xlink" x="0px" y="0px"
	 viewBox="0 0 1280 1024" enable-background="new 0 0 1280 1024" xml:space="preserve">
<path d="M896,624c-51,0-95.5,26-121.1,65.6L519.3,561.7c5.6-15.5,8.7-32.2,8.7-49.7c0-17.6-3.1-34.4-8.8-49.9l255.7-127.7
	C800.5,374,845,400,896,400c80,0,144-64,144-144s-64-144-144-144s-144,64-144,144c0,17.5,3.1,34.3,8.7,49.7L505,433.5
	C479.4,394,435,368,384,368c-80,0-144,64-144,144s64,144,144,144c51,0,95.5-26,121.1-65.6l255.7,127.7c-5.7,15.5-8.8,32.4-8.8,49.9
	c0,80,64,144,144,144s144-64,144-144S976,624,896,624z M896,144c60.8,0,112,51.2,112,112s-51.2,112-112,112s-112-51.2-112-112
	S835.2,144,896,144z M384,624c-60.8,0-112-51.2-112-112s51.2-112,112-112s112,51.2,112,112S444.8,624,384,624z M896,880
	c-60.8,0-112-51.2-112-112s51.2-112,112-112s112,51.2,112,112S956.8,880,896,880z"/>
</svg>
