<?xml version="1.0" encoding="utf-8"?>
<!-- Generator: Adobe Illustrator 18.0.0, SVG Export Plug-In . SVG Version: 6.00 Build 0)  -->
<!DOCTYPE svg PUBLIC "-//W3C//DTD SVG 1.1//EN" "http://www.w3.org/Graphics/SVG/1.1/DTD/svg11.dtd">
<svg version="1.1" id="Ebene_1" xmlns="http://www.w3.org/2000/svg" xmlns:xlink="http://www.w3.org/1999/xlink" x="0px" y="0px"
	 viewBox="0 0 1280 1024" enable-background="new 0 0 1280 1024" xml:space="preserve">
<g>
	<polygon fill="#1D1D1B" points="480,112 480,80 208,80 208,352 240,352 240,134.6 499.2,393.9 521.9,371.2 262.6,112 	"/>
	<polygon fill="#1D1D1B" points="1040,889.4 778.5,627.9 755.9,650.5 1017.4,912 800,912 800,944 1072,944 1072,672 1040,672 	"/>
	<polygon fill="#1D1D1B" points="800,80 800,112 1029,112 755,374.2 777.1,397.3 1040,145.8 1040,352 1072,352 1072,80 	"/>
	<polygon fill="#1D1D1B" points="494.3,624.9 240,888.1 240,672 208,672 208,944 480,944 480,912 261.4,912 517.3,647.1 	"/>
</g>
</svg>
