<?xml version="1.0" encoding="utf-8"?>
<!-- Generator: Adobe Illustrator 18.0.0, SVG Export Plug-In . SVG Version: 6.00 Build 0)  -->
<!DOCTYPE svg PUBLIC "-//W3C//DTD SVG 1.1//EN" "http://www.w3.org/Graphics/SVG/1.1/DTD/svg11.dtd">
<svg version="1.1" id="Ebene_1" xmlns="http://www.w3.org/2000/svg" xmlns:xlink="http://www.w3.org/1999/xlink" x="0px" y="0px"
	 viewBox="0 0 1280 1024" enable-background="new 0 0 1280 1024" xml:space="preserve">
<g>
	<path d="M825.6,323.2c0-16-12.8-150.4-185.6-150.4c-182.4,0-185.6,153.6-185.6,153.6h32c0-6.4,0-121.6,153.6-121.6
		c150.4,0,153.6,115.2,153.6,121.6v3.2c0,3.2,12.8,70.4-89.6,156.8c-70.4,60.8-70.4,144-70.4,201.6v16h28.8v-19.2
		c0-60.8,0-124.8,60.8-176C835.2,416,828.8,336,825.6,323.2z"/>
	<rect x="633.6" y="800" width="32" height="32"/>
</g>
</svg>
