<?xml version="1.0" encoding="utf-8"?>
<!-- Generator: Adobe Illustrator 18.0.0, SVG Export Plug-In . SVG Version: 6.00 Build 0)  -->
<!DOCTYPE svg PUBLIC "-//W3C//DTD SVG 1.1//EN" "http://www.w3.org/Graphics/SVG/1.1/DTD/svg11.dtd">
<svg version="1.1" id="Ebene_1" xmlns="http://www.w3.org/2000/svg" xmlns:xlink="http://www.w3.org/1999/xlink" x="0px" y="0px"
	 viewBox="0 0 1280 1024" enable-background="new 0 0 1280 1024" xml:space="preserve">
<path fill="#1D1D1B" d="M931.2,204.8H822.4v-67.2c0-32-25.6-57.6-57.6-57.6H515.2c-32,0-57.6,25.6-57.6,57.6v67.2H348.8
	c-32,0-57.6,25.6-57.6,57.6v140.8h41.6v483.2c0,32,25.6,57.6,57.6,57.6h499.2c32,0,57.6-25.6,57.6-57.6V403.2h41.6V262.4
	C988.8,230.4,963.2,204.8,931.2,204.8z M489.6,137.6c0-12.8,12.8-25.6,25.6-25.6h249.6c12.8,0,25.6,12.8,25.6,25.6v67.2H489.6V137.6
	z M889.6,912H390.4c-12.8,0-25.6-12.8-25.6-25.6V403.2h550.4v483.2C915.2,899.2,902.4,912,889.6,912z M956.8,371.2h-25.6h-16H364.8
	h-16h-25.6V262.4c0-12.8,12.8-25.6,25.6-25.6h582.4c12.8,0,25.6,12.8,25.6,25.6V371.2z"/>
</svg>
