<?xml version="1.0" encoding="utf-8"?>
<!-- Generator: Adobe Illustrator 18.0.0, SVG Export Plug-In . SVG Version: 6.00 Build 0)  -->
<!DOCTYPE svg PUBLIC "-//W3C//DTD SVG 1.1//EN" "http://www.w3.org/Graphics/SVG/1.1/DTD/svg11.dtd">
<svg version="1.1" id="Ebene_1" xmlns="http://www.w3.org/2000/svg" xmlns:xlink="http://www.w3.org/1999/xlink" x="0px" y="0px"
	 viewBox="0 0 1280 1024" enable-background="new 0 0 1280 1024" xml:space="preserve">
<g>
	<path fill="#1D1D1B" d="M470.4,332.8H249.6c-32,0-57.6,25.6-57.6,57.6v246.4c0,32,25.6,57.6,57.6,57.6h220.8v-9.6L675.2,832V192
		L470.4,342.4V332.8z M224,636.8V390.4c0-12.8,12.8-25.6,25.6-25.6h188.8v38.4v217.6v41.6H249.6C236.8,662.4,224,649.6,224,636.8z
		 M643.2,256v512L470.4,643.8V380.2L643.2,256z"/>
	<polygon fill="#1D1D1B" points="1045.8,432.8 1023.2,410.2 944,489.4 864.8,410.2 842.2,432.8 921.4,512 842.2,591.2 864.8,613.8 
		944,534.6 1023.2,613.8 1045.8,591.2 966.6,512 	"/>
</g>
</svg>
