<?xml version="1.0" encoding="utf-8"?>
<!-- Generator: Adobe Illustrator 18.0.0, SVG Export Plug-In . SVG Version: 6.00 Build 0)  -->
<!DOCTYPE svg PUBLIC "-//W3C//DTD SVG 1.1//EN" "http://www.w3.org/Graphics/SVG/1.1/DTD/svg11.dtd">
<svg version="1.1" id="Ebene_1" xmlns="http://www.w3.org/2000/svg" xmlns:xlink="http://www.w3.org/1999/xlink" x="0px" y="0px"
	 viewBox="0 0 1280 1024" enable-background="new 0 0 1280 1024" xml:space="preserve">
<path fill="#020202" d="M1065.6,944V838.4c0-3.2,3.2-57.6-44.8-96c-19.2-19.2-51.2-25.6-83.2-32c-38.4-6.4-80-16-115.2-48
	c0,0-25.6-16-28.8-41.6c-3.2-19.2,6.4-32,25.6-54.4c57.6-73.6,86.4-147.2,86.4-220.8C905.6,198.4,787.2,80,640,80
	S374.4,201.6,374.4,345.6c0,66.2,27.9,138.6,83.8,217.1l-0.6,0.5c19.2,25.6,25.6,48,22.4,67.2c-3.2,25.6-25.6,38.4-28.8,41.6
	c-28.8,28.8-70.4,38.4-112,48c-32,6.4-60.8,16-83.2,32c-48,38.4-44.8,92.8-44.8,92.8V944H1065.6z M272,774.4
	c16-12.8,41.6-19.2,70.4-25.6c41.6-6.4,89.6-19.2,124.8-51.2c0-3.2,35.2-22.4,41.6-60.8c6.2-27.7-2.5-58.3-23.1-89.1l0.7-0.5
	c-51.2-70.4-80-140.8-80-201.6C406.4,217.6,512,112,640,112s233.6,105.6,233.6,233.6c0,67.2-25.6,134.4-80,201.6l0,0
	c-23.9,30.4-38.2,55.5-32,83.2c6.4,35.2,35.2,57.6,41.6,60.8c38.4,35.2,86.4,44.8,128,54.4c28.8,6.4,54.4,12.8,70.4,25.6
	c35.2,28.8,32,67.2,32,70.4v67.2H240v-38.4v-28.8C240,841.6,236.8,803.2,272,774.4z"/>
</svg>
