<?xml version="1.0" encoding="utf-8"?>
<!-- Generator: Adobe Illustrator 18.0.0, SVG Export Plug-In . SVG Version: 6.00 Build 0)  -->
<!DOCTYPE svg PUBLIC "-//W3C//DTD SVG 1.1//EN" "http://www.w3.org/Graphics/SVG/1.1/DTD/svg11.dtd">
<svg version="1.1" id="Ebene_1" xmlns="http://www.w3.org/2000/svg" xmlns:xlink="http://www.w3.org/1999/xlink" x="0px" y="0px"
	 viewBox="0 0 32 32" enable-background="new 0 0 32 32" xml:space="preserve">
<g>
	<path fill="#1D1D1B" d="M27.7,29.5H4.3c-1,0-1.8-0.8-1.8-1.8V4.3c0-1,0.8-1.8,1.8-1.8h23.4c1,0,1.8,0.8,1.8,1.8v23.4
		C29.5,28.7,28.7,29.5,27.7,29.5z M4.3,3.5c-0.4,0-0.8,0.4-0.8,0.8v23.4c0,0.4,0.4,0.8,0.8,0.8h23.4c0.4,0,0.8-0.4,0.8-0.8V4.3
		c0-0.4-0.4-0.8-0.8-0.8H4.3z"/>
</g>
</svg>
