<?xml version="1.0" encoding="utf-8"?>
<!-- Generator: Adobe Illustrator 18.0.0, SVG Export Plug-In . SVG Version: 6.00 Build 0)  -->
<!DOCTYPE svg PUBLIC "-//W3C//DTD SVG 1.1//EN" "http://www.w3.org/Graphics/SVG/1.1/DTD/svg11.dtd">
<svg version="1.1" id="Ebene_1" xmlns="http://www.w3.org/2000/svg" xmlns:xlink="http://www.w3.org/1999/xlink" x="0px" y="0px"
	 viewBox="0 0 1280 1024" enable-background="new 0 0 1280 1024" xml:space="preserve">
<path fill="#1D1D1B" d="M1014.4,115.2H265.6c-32,0-57.6,25.6-57.6,57.6V672c0,32,25.6,57.6,57.6,57.6H624v147.2H384
	c-9.6,0-16,6.4-16,16s6.4,16,16,16h512c9.6,0,16-6.4,16-16s-6.4-16-16-16H656V729.6h358.4c32,0,57.6-25.6,57.6-57.6V172.8
	C1072,140.8,1046.4,115.2,1014.4,115.2z M1040,672c0,12.8-12.8,25.6-25.6,25.6H265.6c-12.8,0-25.6-12.8-25.6-25.6V172.8
	c0-12.8,12.8-25.6,25.6-25.6h748.8c12.8,0,25.6,12.8,25.6,25.6V672z"/>
</svg>
