<?xml version="1.0" encoding="utf-8"?>
<!-- Generator: Adobe Illustrator 18.0.0, SVG Export Plug-In . SVG Version: 6.00 Build 0)  -->
<!DOCTYPE svg PUBLIC "-//W3C//DTD SVG 1.1//EN" "http://www.w3.org/Graphics/SVG/1.1/DTD/svg11.dtd">
<svg version="1.1" id="Ebene_1" xmlns="http://www.w3.org/2000/svg" xmlns:xlink="http://www.w3.org/1999/xlink" x="0px" y="0px"
	 viewBox="0 0 1280 1024" enable-background="new 0 0 1280 1024" xml:space="preserve">
<g>
	<path fill="#1D1D1B" d="M640,368c-96,0-176,80-176,176s80,176,176,176s176-80,176-176S736,368,640,368z M640,688
		c-80,0-144-64-144-144s64-144,144-144s144,64,144,144S720,688,640,688z"/>
	<path fill="#1D1D1B" d="M1017.6,336h-76.8l-83.2-160H422.4l-83.2,160h-76.8c-28.8,0-54.4,22.4-54.4,51.2V848h864V387.2
		C1072,358.4,1046.4,336,1017.6,336z M1040,816H240V387.2c0-9.6,9.6-19.2,22.4-19.2h96l83.2-160h396.8l83.2,160h96
		c12.8,0,22.4,6.4,22.4,19.2V816z"/>
</g>
</svg>
