<?xml version="1.0" encoding="utf-8"?>
<!-- Generator: Adobe Illustrator 18.0.0, SVG Export Plug-In . SVG Version: 6.00 Build 0)  -->
<!DOCTYPE svg PUBLIC "-//W3C//DTD SVG 1.1//EN" "http://www.w3.org/Graphics/SVG/1.1/DTD/svg11.dtd">
<svg version="1.1" id="Ebene_1" xmlns="http://www.w3.org/2000/svg" xmlns:xlink="http://www.w3.org/1999/xlink" x="0px" y="0px"
	 viewBox="0 0 1280 1024" enable-background="new 0 0 1280 1024" xml:space="preserve">
<g>
	<path fill="#1D1D1B" d="M1046.4,838.4L992,636.8l-201.6,54.4l6.4,32l150.9-41.9c-34.7,76.3-97.3,138-173.3,173.1
		c-83.2,38.4-179.2,41.6-265.6,9.6C416,828.8,339.2,755.2,304,659.2L275.2,672c38.4,105.6,121.6,185.6,224,224
		c41.6,16,86.4,22.4,131.2,22.4c54.4,0,108.8-12.8,156.8-35.2c84.1-37.7,149.8-104.3,187.6-188l39.6,152.8L1046.4,838.4z"/>
	<path fill="#1D1D1B" d="M489.6,332.8l-6.4-32l-153.4,42.6c34.4-77.9,94.3-139,172.6-173.8C585.6,131.2,681.6,128,768,160
		c96,35.2,169.6,108.8,208,208l28.8-12.8c-38.4-105.6-121.6-185.6-224-224c-96-35.2-198.4-28.8-291.2,12.8
		c-82.2,36.9-146.9,101.4-185,182.4l-39-150.4l-32,9.6L288,387.2L489.6,332.8z"/>
</g>
</svg>
