<?xml version="1.0" encoding="utf-8"?>
<!-- Generator: Adobe Illustrator 18.0.0, SVG Export Plug-In . SVG Version: 6.00 Build 0)  -->
<!DOCTYPE svg PUBLIC "-//W3C//DTD SVG 1.1//EN" "http://www.w3.org/Graphics/SVG/1.1/DTD/svg11.dtd">
<svg version="1.1" id="Ebene_1" xmlns="http://www.w3.org/2000/svg" xmlns:xlink="http://www.w3.org/1999/xlink" x="0px" y="0px"
	 viewBox="0 0 32 32" enable-background="new 0 0 32 32" xml:space="preserve">
<g>
	<path fill="#1D1D1B" d="M3.2,28.8l3.3-10.2L20.8,4.3c0.9-0.9,2.3-1,3-0.3L28,8.1c0.3,0.3,0.5,0.8,0.5,1.3c0,0.6-0.3,1.3-0.8,1.8
		L13.4,25.5L3.2,28.8z M7.4,19.1l-2.6,8.1l8.1-2.6L27,10.5c0.3-0.3,0.5-0.7,0.5-1c0-0.2,0-0.4-0.2-0.6l-4.1-4.1
		c-0.2-0.2-0.4-0.2-0.6-0.2c-0.4,0-0.7,0.2-1,0.5L7.4,19.1z"/>
</g>
</svg>
