<?xml version="1.0" encoding="utf-8"?>
<!-- Generator: Adobe Illustrator 18.0.0, SVG Export Plug-In . SVG Version: 6.00 Build 0)  -->
<!DOCTYPE svg PUBLIC "-//W3C//DTD SVG 1.1//EN" "http://www.w3.org/Graphics/SVG/1.1/DTD/svg11.dtd">
<svg version="1.1" id="Ebene_1" xmlns="http://www.w3.org/2000/svg" xmlns:xlink="http://www.w3.org/1999/xlink" x="0px" y="0px"
	 viewBox="0 0 1280 1024" enable-background="new 0 0 1280 1024" xml:space="preserve">
<path fill="#1D1D1B" d="M640,80c-236.8,0-432,195.2-432,432s195.2,432,432,432s432-195.2,432-432S876.8,80,640,80z M240,512
	c0-220.8,179.2-400,400-400c104.1,0,198.9,39.8,270,105L347.2,784.4C280.7,713,240,617.2,240,512z M640,912
	c-104.1,0-198.9-39.8-270.1-105l562.8-567.5C999.3,311,1040,406.8,1040,512C1040,732.8,860.8,912,640,912z"/>
</svg>
