<?xml version="1.0" encoding="utf-8"?>
<!-- Generator: Adobe Illustrator 18.0.0, SVG Export Plug-In . SVG Version: 6.00 Build 0)  -->
<!DOCTYPE svg PUBLIC "-//W3C//DTD SVG 1.1//EN" "http://www.w3.org/Graphics/SVG/1.1/DTD/svg11.dtd">
<svg version="1.1" id="Ebene_1" xmlns="http://www.w3.org/2000/svg" xmlns:xlink="http://www.w3.org/1999/xlink" x="0px" y="0px"
	 viewBox="0 0 1280 1024" enable-background="new 0 0 1280 1024" xml:space="preserve">
<path fill="#020202" d="M1072,428.8c0-32-25.6-57.6-57.6-57.6H912V80H368v291.2H265.6c-32,0-57.6,25.6-57.6,57.6v390.4h160V944h544
	V819.2h160V428.8z M400,112h480v259.2H400V112z M880,912H400V694.4h480V912z M1040,787.2H912V662.4H368v124.8H240V428.8
	c0-12.8,12.8-25.6,25.6-25.6H368v0h544v0h102.4c12.8,0,25.6,12.8,25.6,25.6V787.2z"/>
</svg>
