<?xml version="1.0" encoding="utf-8"?>
<!-- Generator: Adobe Illustrator 18.0.0, SVG Export Plug-In . SVG Version: 6.00 Build 0)  -->
<!DOCTYPE svg PUBLIC "-//W3C//DTD SVG 1.1//EN" "http://www.w3.org/Graphics/SVG/1.1/DTD/svg11.dtd">
<svg version="1.1" id="Ebene_1" xmlns="http://www.w3.org/2000/svg" xmlns:xlink="http://www.w3.org/1999/xlink" x="0px" y="0px"
	 viewBox="0 0 1280 1024" enable-background="new 0 0 1280 1024" xml:space="preserve">
<g>
	<path fill="#020202" d="M640,611.2c9.6,0,16-6.4,16-16V96c0-9.6-6.4-16-16-16s-16,6.4-16,16v499.2C624,604.8,630.4,611.2,640,611.2
		z"/>
	<path fill="#020202" d="M851.2,134.4l-16,28.8C963.2,233.6,1040,368,1040,512c0,220.8-179.2,400-400,400S240,732.8,240,512
		c0-147.2,80-281.6,211.2-352l-16-28.8C294.4,208,208,352,208,512c0,236.8,195.2,432,432,432s432-195.2,432-432
		C1072,355.2,985.6,211.2,851.2,134.4z"/>
</g>
</svg>
