<?xml version="1.0" encoding="utf-8"?>
<!-- Generator: Adobe Illustrator 18.0.0, SVG Export Plug-In . SVG Version: 6.00 Build 0)  -->
<!DOCTYPE svg PUBLIC "-//W3C//DTD SVG 1.1//EN" "http://www.w3.org/Graphics/SVG/1.1/DTD/svg11.dtd">
<svg version="1.1" id="Ebene_1" xmlns="http://www.w3.org/2000/svg" xmlns:xlink="http://www.w3.org/1999/xlink" x="0px" y="0px"
	 viewBox="0 0 32 32" enable-background="new 0 0 32 32" xml:space="preserve">
<g>
	<g>
		<path fill="#1D1D1B" d="M22.9,28.3c-1.8,0-3.5-0.6-4.8-1.9L3.8,12.1c-1.8-1.8-1.8-4.7,0-6.4c1.8-1.8,4.7-1.8,6.4,0L24.5,20
			c0.5,0.5,0.8,1.2,0.8,1.8c0,0.7-0.3,1.3-0.7,1.7c-1,1-2.6,1-3.6,0L7.6,10.2l0.7-0.7l13.3,13.3c0.6,0.6,1.6,0.6,2.2,0
			c0.3-0.3,0.4-0.6,0.4-1c0-0.4-0.2-0.8-0.5-1.1L9.5,6.4C8.2,5,5.9,5,4.5,6.4c-1.4,1.4-1.4,3.6,0,5l14.3,14.3c2.2,2.2,6,2.2,8.2,0
			c2.1-2.1,1.9-5.6-0.4-7.9L13.4,4.5l0.7-0.7l13.3,13.3c2.7,2.7,2.8,6.8,0.4,9.3C26.5,27.7,24.7,28.3,22.9,28.3z"/>
	</g>
</g>
</svg>
