<?xml version="1.0" encoding="utf-8"?>
<!-- Generator: Adobe Illustrator 18.0.0, SVG Export Plug-In . SVG Version: 6.00 Build 0)  -->
<!DOCTYPE svg PUBLIC "-//W3C//DTD SVG 1.1//EN" "http://www.w3.org/Graphics/SVG/1.1/DTD/svg11.dtd">
<svg version="1.1" id="Ebene_1" xmlns="http://www.w3.org/2000/svg" xmlns:xlink="http://www.w3.org/1999/xlink" x="0px" y="0px"
	 viewBox="0 0 1280 1024" enable-background="new 0 0 1280 1024" xml:space="preserve">
<g>
	<path d="M436,252.8c-1.6-7.9-3-14.4-4-19.2c-12.8-64-57.6-80-80-76.8H224v32h128c3.2,0,38.4-3.2,48,51.2c12.8,67.2,96,480,96,480
		l3.2,12.8H928v-32H524.8c-3.2-17.9-10-52.8-18.5-96H896c89.6,0,112-112,112-115.2l70.4-236.8H436z M976,483.2c0,0-16,89.6-80,89.6
		H500c-18.8-95.4-43-216.5-57.5-288h591.1L976,483.2z"/>
	<path d="M864,771.2c-25.6,0-48,22.4-48,48s22.4,48,48,48s48-22.4,48-48S889.6,771.2,864,771.2z M864,835.2c-9.6,0-16-6.4-16-16
		s6.4-16,16-16s16,6.4,16,16S873.6,835.2,864,835.2z"/>
	<path d="M544,771.2c-25.6,0-48,22.4-48,48s22.4,48,48,48c25.6,0,48-22.4,48-48S569.6,771.2,544,771.2z M544,835.2
		c-9.6,0-16-6.4-16-16s6.4-16,16-16c9.6,0,16,6.4,16,16S553.6,835.2,544,835.2z"/>
</g>
</svg>
