<?xml version="1.0" encoding="utf-8"?>
<!-- Generator: Adobe Illustrator 18.0.0, SVG Export Plug-In . SVG Version: 6.00 Build 0)  -->
<!DOCTYPE svg PUBLIC "-//W3C//DTD SVG 1.1//EN" "http://www.w3.org/Graphics/SVG/1.1/DTD/svg11.dtd">
<svg version="1.1" id="Ebene_1" xmlns="http://www.w3.org/2000/svg" xmlns:xlink="http://www.w3.org/1999/xlink" x="0px" y="0px"
	 viewBox="0 0 1280 1024" enable-background="new 0 0 1280 1024" xml:space="preserve">
<g>
	<path fill="#1D1D1B" d="M1014.4,80H265.6c-32,0-57.6,25.6-57.6,57.6v748.8c0,32,25.6,57.6,57.6,57.6h748.8
		c32,0,57.6-25.6,57.6-57.6V137.6C1072,105.6,1046.4,80,1014.4,80z M1040,886.4c0,12.8-12.8,25.6-25.6,25.6H265.6
		c-12.8,0-25.6-12.8-25.6-25.6V137.6c0-12.8,12.8-25.6,25.6-25.6h748.8c12.8,0,25.6,12.8,25.6,25.6V886.4z"/>
	<polygon fill="#1D1D1B" points="592,620.8 441.6,512 422.4,537.6 595.2,662.4 860.8,352 835.2,329.6 	"/>
</g>
</svg>
