<?xml version="1.0" encoding="utf-8"?>
<!-- Generator: Adobe Illustrator 18.0.0, SVG Export Plug-In . SVG Version: 6.00 Build 0)  -->
<!DOCTYPE svg PUBLIC "-//W3C//DTD SVG 1.1//EN" "http://www.w3.org/Graphics/SVG/1.1/DTD/svg11.dtd">
<svg version="1.1" id="Ebene_1" xmlns="http://www.w3.org/2000/svg" xmlns:xlink="http://www.w3.org/1999/xlink" x="0px" y="0px"
	 viewBox="0 0 32 32" enable-background="new 0 0 32 32" xml:space="preserve">
<g>
	<g>
		<path fill="#1D1D1B" d="M7.5,29v-6.5H4.3c-1.1,0-1.8-0.6-1.8-1.5V5.2c0-1,0.8-1.7,1.8-1.7h23.4c1,0,1.8,0.8,1.8,1.7V21
			c0,0.9-0.7,1.5-1.8,1.5H16.2L7.5,29z M4.3,4.5c-0.4,0-0.8,0.3-0.8,0.7V21c0,0.4,0.5,0.5,0.8,0.5h4.2V27l7.3-5.5h11.9
			c0.3,0,0.8-0.1,0.8-0.5V5.2c0-0.4-0.4-0.7-0.8-0.7H4.3z"/>
	</g>
</g>
</svg>
