<?xml version="1.0" encoding="utf-8"?>
<!-- Generator: Adobe Illustrator 18.0.0, SVG Export Plug-In . SVG Version: 6.00 Build 0)  -->
<!DOCTYPE svg PUBLIC "-//W3C//DTD SVG 1.1//EN" "http://www.w3.org/Graphics/SVG/1.1/DTD/svg11.dtd">
<svg version="1.1" id="Ebene_1" xmlns="http://www.w3.org/2000/svg" xmlns:xlink="http://www.w3.org/1999/xlink" x="0px" y="0px"
	 viewBox="0 0 1280 1024" enable-background="new 0 0 1280 1024" xml:space="preserve">
<g>
	<polygon fill="#1D1D1B" points="649.6,544 617.6,544 617.6,656 505.6,656 505.6,688 617.6,688 617.6,800 649.6,800 649.6,688 
		761.6,688 761.6,656 649.6,656 	"/>
	<path fill="#1D1D1B" d="M688,80H355.2c-32,0-57.6,25.6-57.6,57.6V944h672h3.2V384L688,80z M937.6,396.8v3.2h-256V122.3L937.6,396.8
		z M329.6,912h-3.2V137.6c0-12.8,12.8-25.6,25.6-25.6h297.6v320h288v480H329.6z"/>
</g>
</svg>
