<?xml version="1.0" encoding="utf-8"?>
<!-- Generator: Adobe Illustrator 18.0.0, SVG Export Plug-In . SVG Version: 6.00 Build 0)  -->
<!DOCTYPE svg PUBLIC "-//W3C//DTD SVG 1.1//EN" "http://www.w3.org/Graphics/SVG/1.1/DTD/svg11.dtd">
<svg version="1.1" id="Ebene_1" xmlns="http://www.w3.org/2000/svg" xmlns:xlink="http://www.w3.org/1999/xlink" x="0px" y="0px"
	 viewBox="0 0 1280 1024" enable-background="new 0 0 1280 1024" xml:space="preserve">
<g>
	<path d="M640,230.4C496,230.4,492.8,352,492.8,352h32c0-3.2,0-89.6,115.2-89.6c112,0,115.2,80,115.2,89.6v3.2
		c3.2,3.2,12.8,54.4-67.2,118.4C624,528,624,595.2,624,640h32c0-44.8,0-96,51.2-140.8c86.4-70.4,83.2-134.4,80-147.2
		C787.2,336,777.6,230.4,640,230.4z"/>
	<rect x="624" y="704" width="32" height="32"/>
	<path d="M640,80c-236.8,0-432,195.2-432,432s195.2,432,432,432s432-195.2,432-432S876.8,80,640,80z M640,912
		c-220.8,0-400-179.2-400-400s179.2-400,400-400s400,179.2,400,400S860.8,912,640,912z"/>
</g>
</svg>
