<?xml version="1.0" encoding="utf-8"?>
<!-- Generator: Adobe Illustrator 18.0.0, SVG Export Plug-In . SVG Version: 6.00 Build 0)  -->
<!DOCTYPE svg PUBLIC "-//W3C//DTD SVG 1.1//EN" "http://www.w3.org/Graphics/SVG/1.1/DTD/svg11.dtd">
<svg version="1.1" id="Ebene_1" xmlns="http://www.w3.org/2000/svg" xmlns:xlink="http://www.w3.org/1999/xlink" x="0px" y="0px"
	 viewBox="0 0 1280 1024" enable-background="new 0 0 1280 1024" xml:space="preserve">
<g>
	<rect x="352" y="432" fill="#1D1D1B" width="288" height="32"/>
	<rect x="352" y="592" fill="#1D1D1B" width="288" height="32"/>
	<rect x="352" y="752" fill="#1D1D1B" width="288" height="32"/>
	<path fill="#1D1D1B" d="M726.4,240H265.6c-32,0-57.6,25.6-57.6,57.6V944h576V297.6C784,265.6,758.4,240,726.4,240z M752,912H240
		V297.6c0-12.8,12.8-25.6,25.6-25.6h460.8c12.8,0,25.6,12.8,25.6,25.6V912z"/>
	<path fill="#1D1D1B" d="M1014.4,76.8H553.6c-32,0-57.6,25.6-57.6,57.6V192h32v-57.6c0-16,12.8-25.6,25.6-25.6h460.8
		c12.8,0,25.6,12.8,25.6,25.6V720H832v32h240V134.4C1072,102.4,1046.4,76.8,1014.4,76.8z"/>
</g>
</svg>
