<?xml version="1.0" encoding="utf-8"?>
<!-- Generator: Adobe Illustrator 18.0.0, SVG Export Plug-In . SVG Version: 6.00 Build 0)  -->
<!DOCTYPE svg PUBLIC "-//W3C//DTD SVG 1.1//EN" "http://www.w3.org/Graphics/SVG/1.1/DTD/svg11.dtd">
<svg version="1.1" id="Ebene_1" xmlns="http://www.w3.org/2000/svg" xmlns:xlink="http://www.w3.org/1999/xlink" x="0px" y="0px"
	 viewBox="0 0 1280 1024" enable-background="new 0 0 1280 1024" xml:space="preserve">
<g>
	<path fill="#1D1D1B" d="M1056,416h-80c-9.6-25.6-19.2-51.2-32-73.6l57.6-57.6c6.4-6.4,6.4-16,0-22.4L883.2,144
		c-3.2,0-9.6-3.2-12.8-3.2c-6.4,0-9.6,0-12.8,3.2L800,201.6c-19.2-9.6-38.4-16-60.8-22.4V96c0-9.6-6.4-16-16-16H556.8
		c-9.6,0-16,6.4-16,16v80c-22.4,9.6-44.8,16-67.2,28.8L412.8,144c-6.4-6.4-16-6.4-22.4,0L272,262.4c-6.4,6.4-6.4,16,0,22.4l64,60.8
		c-12.8,22.4-22.4,44.8-28.8,67.2H224c-9.6,0-16,6.4-16,16v166.4c0,9.6,6.4,16,16,16h80c6.4,22.4,16,41.6,25.6,60.8l-60.8,54.4
		c0,3.2-3.2,6.4-3.2,12.8s0,9.6,3.2,12.8l118.4,118.4c6.4,6.4,16,6.4,22.4,0l57.6-57.6c22.4,12.8,48,25.6,73.6,32V928
		c0,9.6,6.4,16,16,16h166.4c9.6,0,16-6.4,12.8-16v-73.6c22.4-6.4,44.8-16,67.2-28.8l54.4,54.4c6.4,6.4,16,6.4,22.4,0l118.4-118.4
		c0-3.2,3.2-6.4,3.2-12.8s0-9.6-3.2-12.8L944,681.6c12.8-22.4,22.4-44.8,28.8-67.2h83.2c9.6,0,16-6.4,16-16V432
		C1072,422.4,1065.6,416,1056,416z M1040,579.2h-76.8c-6.4,0-12.8,6.4-16,12.8c-9.6,25.6-19.2,54.4-35.2,80
		c-3.2,6.4-3.2,12.8,3.2,19.2l51.2,51.2l-96,96l-51.2-51.2c-6.4-6.4-12.8-6.4-19.2-3.2c-22.4,16-51.2,28.8-80,35.2
		c-6.4,3.2-12.8,9.6-12.8,16V912H572.8v-76.8c0-6.4-6.4-12.8-12.8-16c-28.8-9.6-60.8-22.4-86.4-38.4c-6.4-3.2-12.8-3.2-19.2,3.2
		L400,838.4l-96-96l54.4-54.4c6.4-6.4,6.4-12.8,3.2-19.2c-12.8-25.6-22.4-51.2-28.8-76.8c-3.2-6.4-9.6-12.8-16-12.8H240V444.8h76.8
		c6.4,0,12.8-6.4,16-12.8c9.6-28.8,19.2-54.4,35.2-80c3.2-6.4,3.2-12.8-3.2-19.2L304,272l96-96l60.8,60.8c6.4,6.4,12.8,6.4,19.2,3.2
		c25.6-16,51.2-25.6,80-35.2c6.4-3.2,12.8-9.6,12.8-16V112h134.4v76.8c0,6.4,6.4,12.8,12.8,16c28.8,6.4,54.4,16,76.8,28.8
		c6.4,3.2,12.8,3.2,19.2-3.2l54.4-54.4l96,96L912,326.4c-6.4,3.2-6.4,12.8-3.2,19.2c19.2,25.6,32,54.4,38.4,86.4
		c3.2,6.4,9.6,12.8,16,12.8h76.8V579.2z"/>
	<path fill="#1D1D1B" d="M640,336c-96,0-176,80-176,176s80,176,176,176s176-80,176-176S736,336,640,336z M640,656
		c-80,0-144-64-144-144s64-144,144-144s144,64,144,144S720,656,640,656z"/>
</g>
</svg>
