<?xml version="1.0" encoding="utf-8"?>
<!-- Generator: Adobe Illustrator 18.0.0, SVG Export Plug-In . SVG Version: 6.00 Build 0)  -->
<!DOCTYPE svg PUBLIC "-//W3C//DTD SVG 1.1//EN" "http://www.w3.org/Graphics/SVG/1.1/DTD/svg11.dtd">
<svg version="1.1" id="Ebene_1" xmlns="http://www.w3.org/2000/svg" xmlns:xlink="http://www.w3.org/1999/xlink" x="0px" y="0px"
	 viewBox="0 0 1280 1024" enable-background="new 0 0 1280 1024" xml:space="preserve">
<g>
	<path fill="#020202" d="M640,908.8l-12.8-9.6C508.8,793.6,441.6,720,374.4,649.6c-32-35.2-67.2-70.4-105.6-112
		c-54.4-60.8-73.6-140.8-57.6-220.8c16-73.6,60.8-134.4,121.6-166.4c38.4-19.2,70.4-28.8,102.4-28.8c67.2,0,131.2,41.6,201.6,137.6
		c70.4-89.6,137.6-134.4,208-134.4c32,0,64,9.6,96,25.6c60.8,32,108.8,92.8,121.6,166.4c16,76.8-6.4,156.8-57.6,217.6
		c-70.4,70.4-112,112-147.2,150.4C800,745.6,640,908.8,640,908.8z M438.4,153.6c-25.6,0-54.4,6.4-89.6,25.6
		c-51.2,25.6-92.8,80-105.6,144c-12.8,67.2,6.4,137.6,51.2,192c38.4,38.4,73.6,76.8,105.6,112c64,67.2,128,137.6,240,236.8
		c102.4-102.4,144-144,198.4-201.6c35.2-38.4,76.8-80,147.2-150.4c44.8-54.4,64-121.6,51.2-192c-12.8-64-51.2-118.4-105.6-144
		c-28.8-16-57.6-22.4-83.2-22.4c-64,0-128,44.8-195.2,137.6L640,310.4l-12.8-19.2C560,198.4,499.2,153.6,438.4,153.6z"/>
</g>
</svg>
