<?xml version="1.0" encoding="utf-8"?>
<!-- Generator: Adobe Illustrator 18.0.0, SVG Export Plug-In . SVG Version: 6.00 Build 0)  -->
<!DOCTYPE svg PUBLIC "-//W3C//DTD SVG 1.1//EN" "http://www.w3.org/Graphics/SVG/1.1/DTD/svg11.dtd">
<svg version="1.1" id="Ebene_1" xmlns="http://www.w3.org/2000/svg" xmlns:xlink="http://www.w3.org/1999/xlink" x="0px" y="0px"
	 viewBox="0 0 32 32" enable-background="new 0 0 32 32" xml:space="preserve">
<g>
	<g>
		<path fill="#1D1D1B" d="M26.8,27.5H5.2c-1,0-1.7-0.7-1.7-1.6V6.1c0-0.9,0.7-1.6,1.7-1.6h7.5l1.2,3h12.9c1,0,1.7,0.6,1.7,1.5v16.9
			C28.5,26.8,27.8,27.5,26.8,27.5z M5.2,5.5c-0.3,0-0.7,0.2-0.7,0.6v19.8c0,0.4,0.4,0.6,0.7,0.6h21.6c0.3,0,0.7-0.2,0.7-0.6V9
			c0-0.3-0.2-0.5-0.7-0.5H13.3l-1.2-3H5.2z"/>
	</g>
</g>
</svg>
