<?xml version="1.0" encoding="utf-8"?>
<!-- Generator: Adobe Illustrator 18.0.0, SVG Export Plug-In . SVG Version: 6.00 Build 0)  -->
<!DOCTYPE svg PUBLIC "-//W3C//DTD SVG 1.1//EN" "http://www.w3.org/Graphics/SVG/1.1/DTD/svg11.dtd">
<svg version="1.1" id="Ebene_1" xmlns="http://www.w3.org/2000/svg" xmlns:xlink="http://www.w3.org/1999/xlink" x="0px" y="0px"
	 viewBox="0 0 1280 1024" enable-background="new 0 0 1280 1024" xml:space="preserve">
<g>
	<rect x="368" y="448" fill="#1D1D1B" width="32" height="480"/>
	<rect x="368" y="96" fill="#1D1D1B" width="32" height="224"/>
	<rect x="624" y="736" fill="#1D1D1B" width="32" height="192"/>
	<rect x="624" y="96" fill="#1D1D1B" width="32" height="512"/>
	<rect x="880" y="448" fill="#1D1D1B" width="32" height="480"/>
	<rect x="880" y="96" fill="#1D1D1B" width="32" height="224"/>
	<path fill="#1D1D1B" d="M528,384c0-9.6-6.4-16-16-16H256c-9.6,0-16,6.4-16,16c0,9.6,6.4,16,16,16h256C521.6,400,528,393.6,528,384z
		"/>
	<path fill="#1D1D1B" d="M1024,368H768c-9.6,0-16,6.4-16,16c0,9.6,6.4,16,16,16h256c9.6,0,16-6.4,16-16
		C1040,374.4,1033.6,368,1024,368z"/>
	<path fill="#1D1D1B" d="M768,656H512c-9.6,0-16,6.4-16,16s6.4,16,16,16h256c9.6,0,16-6.4,16-16S777.6,656,768,656z"/>
</g>
</svg>
