<?xml version="1.0" encoding="utf-8"?>
<!-- Generator: Adobe Illustrator 18.0.0, SVG Export Plug-In . SVG Version: 6.00 Build 0)  -->
<!DOCTYPE svg PUBLIC "-//W3C//DTD SVG 1.1//EN" "http://www.w3.org/Graphics/SVG/1.1/DTD/svg11.dtd">
<svg version="1.1" id="Ebene_1" xmlns="http://www.w3.org/2000/svg" xmlns:xlink="http://www.w3.org/1999/xlink" x="0px" y="0px"
	 viewBox="0 0 1280 1024" enable-background="new 0 0 1280 1024" xml:space="preserve">
<path fill="#020202" d="M1071.8,212.9c-2.6-26.8-26.9-49.7-54.2-49.7H262.4c-28.6,0-54,25.2-54.4,53.7c-0.4,1.8-0.4,3.6,0,5.5v584
	c0,28.8,25.6,54.4,54.4,54.4h755.2c28.8,0,54.4-25.6,54.4-54.4V219.2C1072.4,217,1072.4,214.9,1071.8,212.9z M262.4,195.2h755.2
	c10.4,0,18.7,6.3,21.4,15.6L640,534.4l-399.6-321C242.2,202.8,251,195.2,262.4,195.2z M1017.6,828.8H262.4
	c-12.8,0-22.4-9.6-22.4-22.4V254l400,318.8L1040,251v555.4C1040,819.2,1030.4,828.8,1017.6,828.8z"/>
</svg>
