<?xml version="1.0" encoding="utf-8"?>
<!-- Generator: Adobe Illustrator 18.0.0, SVG Export Plug-In . SVG Version: 6.00 Build 0)  -->
<!DOCTYPE svg PUBLIC "-//W3C//DTD SVG 1.1//EN" "http://www.w3.org/Graphics/SVG/1.1/DTD/svg11.dtd">
<svg version="1.1" id="Ebene_1" xmlns="http://www.w3.org/2000/svg" xmlns:xlink="http://www.w3.org/1999/xlink" x="0px" y="0px"
	 viewBox="0 0 1280 1024" enable-background="new 0 0 1280 1024" xml:space="preserve">
<path fill="#1D1D1B" d="M905.6,412.8H448V304c0-105.6,86.4-192,192-192c60.8,0,118.4,28.8,153.6,76.8l25.6-19.2
	C777.6,112,710.4,80,640,80c-124.8,0-224,99.2-224,224v108.8h-35.2c-44.8,0-48,25.6-48,38.4V944h614.4V451.2
	C947.2,432,940.8,412.8,905.6,412.8z M915.2,451.2V912H364.8V454.4c0-3.2,6.4-6.4,16-6.4h524.8c6.4,0,9.6,0,9.6,0
	S915.2,448,915.2,451.2z"/>
</svg>
