<?xml version="1.0" encoding="utf-8"?>
<!-- Generator: Adobe Illustrator 18.0.0, SVG Export Plug-In . SVG Version: 6.00 Build 0)  -->
<!DOCTYPE svg PUBLIC "-//W3C//DTD SVG 1.1//EN" "http://www.w3.org/Graphics/SVG/1.1/DTD/svg11.dtd">
<svg version="1.1" id="Ebene_1" xmlns="http://www.w3.org/2000/svg" xmlns:xlink="http://www.w3.org/1999/xlink" x="0px" y="0px"
	 viewBox="0 0 1280 1024" enable-background="new 0 0 1280 1024" xml:space="preserve">
<g>
	<path fill="#020202" d="M780.8,803.2c-16-12.8-38.4-16-60.8-22.4c-28.8-6.4-57.6-12.8-80-35.2c0,0-12.8-9.6-16-25.6
		c0-12.8,6.4-25.6,19.2-41.6c41.6-54.4,64-105.6,60.8-160c0-105.6-86.4-192-192-192s-192,86.4-192,192c0,51.2,19.2,102.4,60.8,160
		c9.6,16,22.4,28.8,19.2,41.6c-3.2,16-26,48.5-99.2,60.8c-22.4,3.2-44.8,9.6-60.8,22.4c-35.2,28.8-32,70.4-32,70.4v73.6h604.8v-73.6
		C812.8,873.6,816,832,780.8,803.2z M790.4,920H240v-30.4v-22.4c0,0,0-25.6,22.4-44.8c9.6-6.4,28.8-12.8,48-16
		C392,796,425.6,752,432,723.2c3.2-19.2-9.6-41.6-25.6-64C371.2,608,352,560,352,518.4c0-89.6,73.6-160,160-160
		c89.6,0,160,73.6,160,160c0,48-16,92.8-54.4,140.8c-16,22.4-25.6,44.8-22.4,67.2c6.4,25.6,25.6,41.6,32,44.8
		c28.8,25.6,64,32,92.8,38.4c19.2,3.2,38.4,6.4,48,16c22.4,19.2,22.4,41.6,22.4,44.8V920z"/>
	<path fill="#020202" d="M1030.4,556.8c-16-12.8-38.4-16-60.8-22.4c-28.8-6.4-57.6-12.8-80-35.2c0,0-12.8-9.6-16-25.6
		c0-12.8,6.4-28.8,19.2-44.8c41.6-54.4,64-105.6,60.8-160c0-105.6-86.4-192-192-192s-192,86.4-192,192h32c0-89.6,70.4-160,160-160
		s160,73.6,160,160c0,48-16,92.8-54.4,140.8c-16,22.4-25.6,48-22.4,70.4c6.4,25.6,25.6,41.6,32,44.8c28.8,25.6,64,32,92.8,38.4
		c19.2,3.2,38.4,6.4,48,16c22.4,19.2,22.4,41.6,22.4,44.8v41.6H764.8v32h297.6v-70.4C1062.4,627.2,1065.6,585.6,1030.4,556.8z"/>
</g>
</svg>
