<?xml version="1.0" encoding="utf-8"?>
<!-- Generator: Adobe Illustrator 18.0.0, SVG Export Plug-In . SVG Version: 6.00 Build 0)  -->
<!DOCTYPE svg PUBLIC "-//W3C//DTD SVG 1.1//EN" "http://www.w3.org/Graphics/SVG/1.1/DTD/svg11.dtd">
<svg version="1.1" id="Ebene_1" xmlns="http://www.w3.org/2000/svg" xmlns:xlink="http://www.w3.org/1999/xlink" x="0px" y="0px"
	 viewBox="0 0 1280 1024" enable-background="new 0 0 1280 1024" xml:space="preserve">
<g>
	<path fill="#1D1D1B" d="M1081.7,930.5L776.9,625.7C831,566.1,864,486.9,864,400c0-185.6-150.4-336-336-336S192,214.4,192,400
		s150.4,336,336,336c87.2,0,166.6-33.2,226.3-87.6l304.8,304.8L1081.7,930.5z M528,704c-166.4,0-304-137.6-304-304S361.6,96,528,96
		s304,137.6,304,304S694.4,704,528,704z"/>
	<polygon fill="#1D1D1B" points="544,272 512,272 512,384 400,384 400,416 512,416 512,528 544,528 544,416 656,416 656,384 
		544,384 	"/>
</g>
</svg>
