<?xml version="1.0" encoding="utf-8"?>
<!-- Generator: Adobe Illustrator 18.0.0, SVG Export Plug-In . SVG Version: 6.00 Build 0)  -->
<!DOCTYPE svg PUBLIC "-//W3C//DTD SVG 1.1//EN" "http://www.w3.org/Graphics/SVG/1.1/DTD/svg11.dtd">
<svg version="1.1" id="Ebene_1" xmlns="http://www.w3.org/2000/svg" xmlns:xlink="http://www.w3.org/1999/xlink" x="0px" y="0px"
	 viewBox="0 0 1280 1024" enable-background="new 0 0 1280 1024" xml:space="preserve">
<g>
	<path fill="#1D1D1B" d="M640,80c-236.8,0-432,195.2-432,432s195.2,432,432,432s432-195.2,432-432S876.8,80,640,80z M640,912
		c-220.8,0-400-179.2-400-400s179.2-400,400-400s400,179.2,400,400S860.8,912,640,912z"/>
	<path fill="#1D1D1B" d="M460.8,332.8l105.6,249.6L816,688L710.4,438.4L460.8,332.8z M592,560l-70.4-163.2l163.2,70.4l70.4,163.2
		L592,560z"/>
</g>
</svg>
