<?xml version="1.0" encoding="utf-8"?>
<!-- Generator: Adobe Illustrator 18.0.0, SVG Export Plug-In . SVG Version: 6.00 Build 0)  -->
<!DOCTYPE svg PUBLIC "-//W3C//DTD SVG 1.1//EN" "http://www.w3.org/Graphics/SVG/1.1/DTD/svg11.dtd">
<svg version="1.1" id="Ebene_1" xmlns="http://www.w3.org/2000/svg" xmlns:xlink="http://www.w3.org/1999/xlink" x="0px" y="0px"
	 viewBox="0 0 1280 1024" enable-background="new 0 0 1280 1024" xml:space="preserve">
<g>
	<path fill="#1D1D1B" d="M956.8,256H768v32h188.8c12.8,0,22.4,9.6,22.4,22.4v595.2c0,12.8-9.6,22.4-22.4,22.4H323.2
		c-12.8,0-22.4-9.6-22.4-22.4V310.4c0-12.8,9.6-22.4,22.4-22.4H512v-32H323.2c-28.8,0-54.4,22.4-54.4,54.4v595.2
		c0,28.8,22.4,54.4,54.4,54.4h633.6c32,0,54.4-25.6,54.4-54.4V310.4C1011.2,281.6,988.8,256,956.8,256z"/>
	<polygon fill="#1D1D1B" points="454.4,524.8 432,547.2 640,755.2 848,547.2 825.6,524.8 656,694.4 656,80 624,80 624,694.4 	"/>
</g>
</svg>
