<?xml version="1.0" encoding="utf-8"?>
<!-- Generator: Adobe Illustrator 18.0.0, SVG Export Plug-In . SVG Version: 6.00 Build 0)  -->
<!DOCTYPE svg PUBLIC "-//W3C//DTD SVG 1.1//EN" "http://www.w3.org/Graphics/SVG/1.1/DTD/svg11.dtd">
<svg version="1.1" id="Ebene_1" xmlns="http://www.w3.org/2000/svg" xmlns:xlink="http://www.w3.org/1999/xlink" x="0px" y="0px"
	 viewBox="0 0 1280 1024" enable-background="new 0 0 1280 1024" xml:space="preserve">
<path fill="#1D1D1B" d="M848,288H432c-124.8,0-224,99.2-224,224s99.2,224,224,224h416c124.8,0,224-99.2,224-224S972.8,288,848,288z
	 M432,704c-105.6,0-192-86.4-192-192s86.4-192,192-192h299.7C666.9,359,624,430,624,512s42.9,153,107.7,192H432z M848,704
	c-105.6,0-192-86.4-192-192s86.4-192,192-192s192,86.4,192,192S953.6,704,848,704z"/>
</svg>
