<?xml version="1.0" encoding="utf-8"?>
<!-- Generator: Adobe Illustrator 18.0.0, SVG Export Plug-In . SVG Version: 6.00 Build 0)  -->
<!DOCTYPE svg PUBLIC "-//W3C//DTD SVG 1.1//EN" "http://www.w3.org/Graphics/SVG/1.1/DTD/svg11.dtd">
<svg version="1.1" id="Ebene_1" xmlns="http://www.w3.org/2000/svg" xmlns:xlink="http://www.w3.org/1999/xlink" x="0px" y="0px"
	 viewBox="0 0 32 32" enable-background="new 0 0 32 32" xml:space="preserve">
<path d="M16,2C8.3,2,2,8.3,2,16s6.3,14,14,14s14-6.3,14-14S23.7,2,16,2z M16,4c2.9,0,5.6,1.1,7.7,2.8l-16.8,17C5.1,21.7,4,19,4,16
	C4,9.4,9.4,4,16,4z M16,28c-2.9,0-5.6-1.1-7.7-2.8l16.8-17C26.9,10.3,28,13,28,16C28,22.6,22.6,28,16,28z"/>
</svg>
