<?xml version="1.0" encoding="utf-8"?>
<!-- Generator: Adobe Illustrator 18.0.0, SVG Export Plug-In . SVG Version: 6.00 Build 0)  -->
<!DOCTYPE svg PUBLIC "-//W3C//DTD SVG 1.1//EN" "http://www.w3.org/Graphics/SVG/1.1/DTD/svg11.dtd">
<svg version="1.1" id="Ebene_1" xmlns="http://www.w3.org/2000/svg" xmlns:xlink="http://www.w3.org/1999/xlink" x="0px" y="0px"
	 viewBox="0 0 32 32" enable-background="new 0 0 32 32" xml:space="preserve">
<g>
	<path d="M16,6.7c-4.1,0-5.1,3.3-5.1,4.3h2c0,0,0.1-2.3,3.1-2.3c2.9,0,3.1,1.9,3.1,2.3l0,0.2c0,0.1,0.2,1.4-2,3.2
		C15,16.2,15,18.5,15,20.1V20h2v0.1c0-1.4,0-3,1.4-4.1c2.8-2.3,2.8-4.5,2.7-5C21,9.4,20,6.7,16,6.7z"/>
	<rect x="15" y="22" width="2" height="2"/>
	<path d="M16,2C8.3,2,2,8.3,2,16s6.3,14,14,14s14-6.3,14-14S23.7,2,16,2z M16,28C9.4,28,4,22.6,4,16S9.4,4,16,4s12,5.4,12,12
		S22.6,28,16,28z"/>
</g>
</svg>
