<?xml version="1.0" encoding="utf-8"?>
<!-- Generator: Adobe Illustrator 18.0.0, SVG Export Plug-In . SVG Version: 6.00 Build 0)  -->
<!DOCTYPE svg PUBLIC "-//W3C//DTD SVG 1.1//EN" "http://www.w3.org/Graphics/SVG/1.1/DTD/svg11.dtd">
<svg version="1.1" id="Ebene_1" xmlns="http://www.w3.org/2000/svg" xmlns:xlink="http://www.w3.org/1999/xlink" x="0px" y="0px"
	 viewBox="0 0 32 32" enable-background="new 0 0 32 32" xml:space="preserve">
<g>
	<g>
		<path d="M22.5,23.5h-13C5.4,23.5,2,20.1,2,16s3.4-7.5,7.5-7.5h13c4.1,0,7.5,3.4,7.5,7.5S26.6,23.5,22.5,23.5z M9.5,10.5
			C6.5,10.5,4,13,4,16s2.5,5.5,5.5,5.5h13c3,0,5.5-2.5,5.5-5.5s-2.5-5.5-5.5-5.5H9.5z"/>
	</g>
	<g>
		<path d="M22.5,23.5c-4.1,0-7.5-3.4-7.5-7.5s3.4-7.5,7.5-7.5S30,11.9,30,16S26.6,23.5,22.5,23.5z M22.5,10.5c-3,0-5.5,2.5-5.5,5.5
			s2.5,5.5,5.5,5.5c3,0,5.5-2.5,5.5-5.5S25.5,10.5,22.5,10.5z"/>
	</g>
</g>
</svg>
