<?xml version="1.0" encoding="utf-8"?>
<!-- Generator: Adobe Illustrator 18.0.0, SVG Export Plug-In . SVG Version: 6.00 Build 0)  -->
<!DOCTYPE svg PUBLIC "-//W3C//DTD SVG 1.1//EN" "http://www.w3.org/Graphics/SVG/1.1/DTD/svg11.dtd">
<svg version="1.1" id="Ebene_1" xmlns="http://www.w3.org/2000/svg" xmlns:xlink="http://www.w3.org/1999/xlink" x="0px" y="0px"
	 viewBox="0 0 32 32" enable-background="new 0 0 32 32" xml:space="preserve">
<g>
	<path d="M25,4.3C25,3,24,2,22.7,2H9.3C8,2,7,3,7,4.3v23.4C7,29,8,30,9.3,30h13.4c1.3,0,2.3-1,2.3-2.3V4.3z M23,27.7
		c0,0.2-0.1,0.3-0.3,0.3H9.3C9.1,28,9,27.9,9,27.7V4.3C9,4.1,9.1,4,9.3,4h13.4C22.9,4,23,4.1,23,4.3V27.7z"/>
	<path d="M15.3,24.3C15.1,24.5,15,24.7,15,25c0,0.3,0.1,0.5,0.3,0.7c0.2,0.2,0.4,0.3,0.7,0.3c0.3,0,0.5-0.1,0.7-0.3
		c0.2-0.2,0.3-0.5,0.3-0.7c0-0.3-0.1-0.5-0.3-0.7C16.3,23.9,15.7,23.9,15.3,24.3z"/>
	<path d="M19,6h-6c-0.6,0-1,0.4-1,1s0.4,1,1,1h6c0.6,0,1-0.4,1-1S19.6,6,19,6z"/>
</g>
</svg>
