<?xml version="1.0" encoding="utf-8"?>
<!-- Generator: Adobe Illustrator 18.0.0, SVG Export Plug-In . SVG Version: 6.00 Build 0)  -->
<!DOCTYPE svg PUBLIC "-//W3C//DTD SVG 1.1//EN" "http://www.w3.org/Graphics/SVG/1.1/DTD/svg11.dtd">
<svg version="1.1" id="Ebene_1" xmlns="http://www.w3.org/2000/svg" xmlns:xlink="http://www.w3.org/1999/xlink" x="0px" y="0px"
	 viewBox="0 0 32 32" enable-background="new 0 0 32 32" xml:space="preserve">
<g>
	<polygon points="11,4 11,2 2,2 2,11 4,11 4,5.4 11.3,12.7 12.7,11.3 5.4,4 	"/>
	<polygon points="28,26.6 20.7,19.3 19.3,20.7 26.6,28 21,28 21,30 30,30 30,21 28,21 	"/>
	<polygon points="21,2 21,4 26.9,4 19.3,11.3 20.7,12.7 28,5.7 28,11 30,11 30,2 	"/>
	<polygon points="11.1,19.2 4,26.5 4,21 2,21 2,30 11,30 11,28 5.4,28 12.5,20.6 	"/>
</g>
</svg>
