<?xml version="1.0" encoding="utf-8"?>
<!-- Generator: Adobe Illustrator 18.0.0, SVG Export Plug-In . SVG Version: 6.00 Build 0)  -->
<!DOCTYPE svg PUBLIC "-//W3C//DTD SVG 1.1//EN" "http://www.w3.org/Graphics/SVG/1.1/DTD/svg11.dtd">
<svg version="1.1" id="Ebene_1" xmlns="http://www.w3.org/2000/svg" xmlns:xlink="http://www.w3.org/1999/xlink" x="0px" y="0px"
	 viewBox="0 0 32 32" enable-background="new 0 0 32 32" xml:space="preserve">
<g>
	<path d="M11.5,26.3c-0.2,0.2-0.3,0.4-0.3,0.7c0,0.3,0.1,0.5,0.3,0.7c0.2,0.2,0.4,0.3,0.7,0.3c0.3,0,0.5-0.1,0.7-0.3
		c0.2-0.2,0.3-0.5,0.3-0.7s-0.1-0.5-0.3-0.7C12.5,25.9,11.9,25.9,11.5,26.3z"/>
	<path d="M21.5,26.3c-0.2,0.2-0.3,0.5-0.3,0.7s0.1,0.5,0.3,0.7c0.2,0.2,0.4,0.3,0.7,0.3c0.3,0,0.5-0.1,0.7-0.3
		c0.2-0.2,0.3-0.5,0.3-0.7s-0.1-0.5-0.3-0.7C22.5,25.9,21.9,25.9,21.5,26.3z"/>
	<path d="M8.7,8C8.5,7,8.4,6.9,8.3,6.7C7.9,5.3,6.9,5,6.3,5H2v2h4.3c0,0,0.1,0.1,0.1,0.3c0.4,1.6,4,16.8,4,17l0.2,0.8h13.6l0.4-2
		H12.4c-0.1,0-0.3-1.2-0.5-2h11.9c1.8,0,3-1.6,3.4-2.6L29.6,8H8.7z M25.4,17.7c-0.1,0.3-0.7,1.3-1.6,1.3H11.4c-0.7-3-1.6-6-2.2-9h18
		L25.4,17.7z"/>
</g>
</svg>
