<?xml version="1.0" encoding="utf-8"?>
<!-- Generator: Adobe Illustrator 18.0.0, SVG Export Plug-In . SVG Version: 6.00 Build 0)  -->
<!DOCTYPE svg PUBLIC "-//W3C//DTD SVG 1.1//EN" "http://www.w3.org/Graphics/SVG/1.1/DTD/svg11.dtd">
<svg version="1.1" id="Ebene_1" xmlns="http://www.w3.org/2000/svg" xmlns:xlink="http://www.w3.org/1999/xlink" x="0px" y="0px"
	 viewBox="0 0 32 32" enable-background="new 0 0 32 32" xml:space="preserve">
<g id="phone-icon">
	<path d="M20,30L20,30c-3.3,0-6.7-3.4-10.2-10.5C3.3,6.6,7.9,4.2,9.6,3.3c0,0,0.1-0.1,0.1-0.1c0.1,0,2-1,2.2-1.1
		C12.1,2,12.3,2,12.5,2c0.3,0.1,0.6,0.3,0.7,0.5l3.7,7.3c0.1,0.2,0.1,0.5,0.1,0.8c-0.1,0.3-0.3,0.5-0.5,0.6l-2.2,1.1
		c-0.2,0.2-0.1,1.6,0.8,3.8c1.2,2.7,2.7,4.1,3.1,4.1c0.1-0.1,0.9-0.5,1.5-0.8c0.4-0.2,0.8-0.4,0.8-0.4c0.5-0.2,1,0.1,1.2,0.5
		l3.7,7.3c0.2,0.5,0.1,1.1-0.4,1.3c0,0-2.1,1.1-2.3,1.1l-0.1,0.1C22.1,29.6,21.2,30,20,30z M11.9,4.4C11.3,4.7,10.6,5,10.6,5
		c-1.3,0.7-4.6,2.4,1,13.6c3.1,6.2,6,9.4,8.4,9.4c0.7,0,1.3-0.3,1.8-0.5l0.1-0.1c0.1,0,0.7-0.4,1.3-0.6l-2.8-5.5
		c-0.6,0.3-1.3,0.6-1.3,0.7c-0.2,0.1-0.5,0.2-0.8,0.2h0c-2.6,0-5.1-4.8-5.8-7.5c-0.7-2.6,0.1-3.7,0.9-4.1l1.3-0.7L11.9,4.4z"/>
</g>
</svg>
