<?xml version="1.0" encoding="utf-8"?>
<!-- Generator: Adobe Illustrator 18.0.0, SVG Export Plug-In . SVG Version: 6.00 Build 0)  -->
<!DOCTYPE svg PUBLIC "-//W3C//DTD SVG 1.1//EN" "http://www.w3.org/Graphics/SVG/1.1/DTD/svg11.dtd">
<svg version="1.1" id="Ebene_1" xmlns="http://www.w3.org/2000/svg" xmlns:xlink="http://www.w3.org/1999/xlink" x="0px" y="0px"
	 viewBox="0 0 32 32" enable-background="new 0 0 32 32" xml:space="preserve">
<g>
	<path d="M24,7.3C22.6,4.1,19.5,2,16,2S9.4,4.1,8,7.3c-3.3,0.1-6,2.9-6,6.3C2,17.2,4.8,20,8.2,20H12v-2H8.2C5.9,18,4,16.1,4,13.7
		c0-2.4,1.9-4.3,4.2-4.3c0,0,0.1,0,0.1,0c0.1,0,0.1,0,0.2,0l0.8,0.1l0.3-0.7C10.5,5.9,13.1,4,16,4s5.5,1.9,6.4,4.7l0.3,0.7l0.8-0.1
		c0.1,0,0.1,0,0.2,0c0,0,0.1,0,0.1,0c2.3,0,4.2,1.9,4.2,4.3c0,2.4-1.9,4.3-4.2,4.3H20v2h3.8c3.4,0,6.2-2.8,6.2-6.3
		C30,10.3,27.3,7.5,24,7.3z"/>
	<polygon points="17,26.6 17,13 15,13 15,26.6 11.4,23.9 10.2,25.5 16,29.8 21.8,25.5 20.6,23.9 	"/>
</g>
</svg>
