<?xml version="1.0" encoding="utf-8"?>
<!-- Generator: Adobe Illustrator 18.0.0, SVG Export Plug-In . SVG Version: 6.00 Build 0)  -->
<!DOCTYPE svg PUBLIC "-//W3C//DTD SVG 1.1//EN" "http://www.w3.org/Graphics/SVG/1.1/DTD/svg11.dtd">
<svg version="1.1" id="Ebene_1" xmlns="http://www.w3.org/2000/svg" xmlns:xlink="http://www.w3.org/1999/xlink" x="0px" y="0px"
	 viewBox="0 0 32 32" enable-background="new 0 0 32 32" xml:space="preserve">
<g>
	<path d="M27.7,2H4.3C3,2,2,3,2,4.3v23.4C2,29,3,30,4.3,30h23.4c1.3,0,2.3-1,2.3-2.3V4.3C30,3,29,2,27.7,2z M28,27.7
		c0,0.2-0.1,0.3-0.3,0.3H4.3C4.1,28,4,27.9,4,27.7V4.3C4,4.1,4.1,4,4.3,4h23.4C27.9,4,28,4.1,28,4.3V27.7z"/>
	<polygon points="14.4,18.7 10.1,15.6 8.9,17.2 14.7,21.4 23.3,11.3 21.7,10 	"/>
</g>
</svg>
