<?xml version="1.0" encoding="utf-8"?>
<!-- Generator: Adobe Illustrator 18.0.0, SVG Export Plug-In . SVG Version: 6.00 Build 0)  -->
<!DOCTYPE svg PUBLIC "-//W3C//DTD SVG 1.1//EN" "http://www.w3.org/Graphics/SVG/1.1/DTD/svg11.dtd">
<svg version="1.1" id="Ebene_1" xmlns="http://www.w3.org/2000/svg" xmlns:xlink="http://www.w3.org/1999/xlink" x="0px" y="0px"
	 viewBox="0 0 32 32" enable-background="new 0 0 32 32" xml:space="preserve">
<g>
	<path d="M29.3,16.5L14.8,2L3,3L2,14.8l14.6,14.6c0.4,0.4,1,0.7,1.7,0.7c0.6,0,1.2-0.2,1.7-0.7l9.5-9.5c0.4-0.4,0.7-1,0.7-1.7
		C30,17.5,29.8,17,29.3,16.5z M27.9,18.4l-9.5,9.5c-0.2,0.2-0.3,0.2-0.5,0L4,14l0.8-9.1L14,4l13.9,13.9C28,18,28,18.1,28,18.2
		C28,18.2,28,18.3,27.9,18.4z"/>
	<path d="M8,8c-1.2,1.2-1.2,3.1,0,4.3c0.6,0.6,1.3,0.9,2.1,0.9c0.8,0,1.6-0.3,2.1-0.9c1.2-1.2,1.2-3.1,0-4.3C11.1,6.8,9.1,6.8,8,8z
		 M10.8,10.8c-0.4,0.4-1.1,0.4-1.4,0c-0.4-0.4-0.4-1,0-1.4c0.2-0.2,0.4-0.3,0.7-0.3s0.5,0.1,0.7,0.3C11.2,9.8,11.2,10.4,10.8,10.8z"
		/>
</g>
</svg>
