<?xml version="1.0" encoding="utf-8"?>
<!-- Generator: Adobe Illustrator 18.0.0, SVG Export Plug-In . SVG Version: 6.00 Build 0)  -->
<!DOCTYPE svg PUBLIC "-//W3C//DTD SVG 1.1//EN" "http://www.w3.org/Graphics/SVG/1.1/DTD/svg11.dtd">
<svg version="1.1" id="Ebene_1" xmlns="http://www.w3.org/2000/svg" xmlns:xlink="http://www.w3.org/1999/xlink" x="0px" y="0px"
	 viewBox="0 0 32 32" enable-background="new 0 0 32 32" xml:space="preserve">
<path d="M23.7,4H22c0-1.1-1-2-2.2-2h-7.5C11,2,10,2.9,10,4H8.3C7,4,6,5,6,6.3v21.3C6,29,7,30,8.3,30h15.4c1.3,0,2.3-1,2.3-2.3V6.3
	C26,5,25,4,23.7,4z M12.2,4h7.5C19.9,4,20,4.1,20,4v2h-8l0-1.9C12,4.1,12.1,4,12.2,4z M24,27.7c0,0.2-0.1,0.3-0.3,0.3H8.3
	C8.1,28,8,27.9,8,27.7V6.3C8,6.1,8.1,6,8.3,6H10v2h12V6h1.7C23.9,6,24,6.1,24,6.3V27.7z"/>
</svg>
