<?xml version="1.0" encoding="utf-8"?>
<!-- Generator: Adobe Illustrator 18.0.0, SVG Export Plug-In . SVG Version: 6.00 Build 0)  -->
<!DOCTYPE svg PUBLIC "-//W3C//DTD SVG 1.1//EN" "http://www.w3.org/Graphics/SVG/1.1/DTD/svg11.dtd">
<svg version="1.1" id="Ebene_1" xmlns="http://www.w3.org/2000/svg" xmlns:xlink="http://www.w3.org/1999/xlink" x="0px" y="0px"
	 viewBox="0 0 32 32" enable-background="new 0 0 32 32" xml:space="preserve">
<path d="M28.3,23.1c-0.8-0.6-1.8-0.8-2.9-1.1c-1.2-0.3-2.4-0.5-3.3-1.3L22,20.6c0,0-0.5-0.4-0.6-0.9c-0.1-0.5,0.1-1,0.6-1.6l0,0
	c1.9-2.4,2.8-4.8,2.8-7.2C24.8,5.9,20.8,2,16,2s-8.8,3.9-8.8,8.8c0,2.2,0.9,4.7,2.8,7.2l0,0c0.5,0.6,0.7,1.2,0.6,1.7
	c-0.1,0.6-0.6,0.9-0.6,0.9l-0.2,0.1c-0.9,0.8-2.1,1.1-3.3,1.3c-1.1,0.2-2.1,0.5-2.9,1.1c-1.4,1.1-1.6,2.7-1.6,3.3l0,3.6h27.8l0-3.5
	C30,25.8,29.7,24.2,28.3,23.1z M4,28v-0.7l0-1c0,0,0-1,0.9-1.7c0.4-0.3,1.2-0.5,2-0.7c1.3-0.3,2.9-0.6,4.2-1.8
	c0.3-0.2,1.2-0.9,1.4-2.1c0.2-1.1-0.1-2.2-0.9-3.3l0,0c-1.6-2.2-2.4-4.3-2.4-6C9.2,7,12.3,4,16,4s6.8,3,6.8,6.8c0,2-0.8,3.9-2.4,6
	l0,0c-0.8,1.1-1.2,2.2-1,3.2c0.2,1.3,1.2,2,1.5,2.2c1.3,1.1,2.9,1.5,4.2,1.8c0.8,0.2,1.6,0.4,2,0.7c0.9,0.7,0.8,1.7,0.8,1.8l0,1.6H4
	z"/>
</svg>
