<?xml version="1.0" encoding="utf-8"?>
<!-- Generator: Adobe Illustrator 18.0.0, SVG Export Plug-In . SVG Version: 6.00 Build 0)  -->
<!DOCTYPE svg PUBLIC "-//W3C//DTD SVG 1.1//EN" "http://www.w3.org/Graphics/SVG/1.1/DTD/svg11.dtd">
<svg version="1.1" id="Ebene_1" xmlns="http://www.w3.org/2000/svg" xmlns:xlink="http://www.w3.org/1999/xlink" x="0px" y="0px"
	 viewBox="0 0 32 32" enable-background="new 0 0 32 32" xml:space="preserve">
<g>
	<path d="M29,12h-2.2c-0.2,0-0.4-0.9-0.7-1.5l1.5-1.4c0.4-0.4,0.4-1,0-1.4l-3.7-3.7c-0.2-0.2-0.4-0.3-0.7-0.3s-0.5,0.1-0.7,0.3
		l-1.4,1.6C20.7,5.5,20,5.3,20,5.2V3c0-0.6-0.8-1-1.4-1h-5.2C12.8,2,12,2.4,12,3v2.2c0,0.2-0.8,0.4-1.3,0.6L9.1,4.1
		c-0.4-0.4-1-0.4-1.4,0L4.1,7.8c-0.4,0.4-0.4,1,0,1.4l1.7,1.5C5.6,11.2,5.4,12,5.2,12H3c-0.6,0-1,0.8-1,1.4v5.2C2,19.2,2.4,20,3,20
		h2.2c0.1,0,0.3,0.7,0.5,1.1l-1.6,1.5c-0.2,0.2-0.3,0.4-0.3,0.7c0,0.3,0.1,0.5,0.3,0.7l3.7,3.7c0.4,0.4,1,0.4,1.4,0l1.3-1.5
		c0.5,0.3,1.5,0.5,1.5,0.7V29c0,0.6,0.8,1,1.4,1h5.2c0.6,0,1.4-0.4,1.4-1v-2.2c0-0.2,0.8-0.4,1.3-0.6l1.3,1.4c0.4,0.4,1,0.4,1.4,0
		l3.7-3.7c0.2-0.2,0.3-0.4,0.3-0.7c0-0.3-0.1-0.5-0.3-0.7l-1.4-1.2c0.2-0.5,0.4-1.3,0.6-1.3H29c0.6,0,1-0.8,1-1.4v-5.2
		C30,12.8,29.6,12,29,12z M28,18h-1.9c-0.5,0-0.9,0.1-1,0.6c-0.2,0.8-0.6,1.6-1,2.3c-0.2,0.4-0.2,0.8,0.2,1.2l1.2,1.2l-2.3,2.3
		L22,24.2c-0.3-0.3-0.8-0.4-1.2-0.2c-0.8,0.4-1.4,0.8-2.2,1c-0.4,0.1-0.6,0.5-0.6,1V28h-4v-1.9c0-0.5-0.1-0.9-0.6-1
		c-0.9-0.2-1.7-0.6-2.5-1.1c-0.4-0.2-0.9-0.2-1.2,0.1l-1.3,1.3l-2.3-2.3l1.4-1.4C8,21.5,8,21,7.8,20.6c-0.4-0.7-0.7-1.3-0.9-2.1
		c-0.1-0.4-0.5-0.6-1-0.6H4v-4h1.9c0.5,0,0.9-0.1,1-0.6c0.2-0.9,0.6-1.6,1-2.3c0.2-0.4,0.2-0.8-0.2-1.2L6.3,8.5l2.3-2.3L10,7.7
		c0.3,0.3,0.8,0.4,1.2,0.2c0.7-0.4,1.4-0.8,2.2-1c0.4-0.1,0.6-0.5,0.6-1V4h4v1.9c0,0.5,0.1,0.9,0.6,1c0.8,0.2,1.5,0.5,2.2,0.9
		C21.1,8,21.5,8,21.9,7.6l1.4-1.4l2.3,2.3l-1.3,1.3c-0.3,0.3-0.4,0.8-0.1,1.2c0.5,0.8,0.9,1.5,1.1,2.4c0.1,0.4,0.5,0.6,1,0.6H28V18z
		"/>
	<path d="M16,10c-3.3,0-6,2.7-6,6s2.7,6,6,6c3.3,0,6-2.7,6-6S19.3,10,16,10z M16,20c-2.2,0-4-1.8-4-4s1.8-4,4-4c2.2,0,4,1.8,4,4
		S18.2,20,16,20z"/>
</g>
</svg>
