<?xml version="1.0" encoding="utf-8"?>
<!-- Generator: Adobe Illustrator 18.0.0, SVG Export Plug-In . SVG Version: 6.00 Build 0)  -->
<!DOCTYPE svg PUBLIC "-//W3C//DTD SVG 1.1//EN" "http://www.w3.org/Graphics/SVG/1.1/DTD/svg11.dtd">
<svg version="1.1" id="Ebene_1" xmlns="http://www.w3.org/2000/svg" xmlns:xlink="http://www.w3.org/1999/xlink" x="0px" y="0px"
	 viewBox="0 0 32 32" enable-background="new 0 0 32 32" xml:space="preserve">
<g>
	<path d="M27.3,19.1L24,15.8l-1.4,1.4l3.3,3.3c1.5,1.5,1.5,3.9,0,5.4c-1.4,1.4-3.9,1.4-5.4,0l-5.8-5.8c-0.7-0.7-1.1-1.6-1.1-2.6
		c0.1-1,0.6-2.1,1.6-3.2c0,0,0,0,0,0c0.2-0.2,0.3-0.4,0.3-0.7c0-0.3-0.1-0.5-0.3-0.7c-0.4-0.4-1-0.4-1.4,0c0,0,0,0,0,0
		c-1.4,1.4-2.1,2.9-2.2,4.5c-0.1,1.5,0.5,2.9,1.7,4.1l5.8,5.8c1.1,1.1,2.5,1.7,4.1,1.7c1.5,0,3-0.6,4.1-1.7
		C29.6,25,29.6,21.4,27.3,19.1z"/>
	<path d="M11.5,6.1l5.8,5.8c1.6,1.6,1.5,3.9-0.5,5.8c0,0,0,0,0,0c-0.2,0.2-0.3,0.5-0.3,0.7s0.1,0.5,0.3,0.7c0.2,0.2,0.4,0.3,0.7,0.3
		s0.5-0.1,0.7-0.3c0,0,0,0,0,0c3.2-3.2,2.5-6.6,0.5-8.7l-5.8-5.8C11.8,3.6,10.3,3,8.8,3c0,0,0,0,0,0c-1.5,0-3,0.6-4.1,1.7
		C3.6,5.8,3,7.2,3,8.8s0.6,3,1.7,4.1l3.4,3.4l1.4-1.4l-3.4-3.4C5.4,10.8,5,9.8,5,8.8c0-1,0.4-2,1.1-2.7C7.5,4.7,10,4.7,11.5,6.1z"/>
</g>
</svg>
