<?xml version="1.0" encoding="utf-8"?>
<!-- Generator: Adobe Illustrator 18.0.0, SVG Export Plug-In . SVG Version: 6.00 Build 0)  -->
<!DOCTYPE svg PUBLIC "-//W3C//DTD SVG 1.1//EN" "http://www.w3.org/Graphics/SVG/1.1/DTD/svg11.dtd">
<svg version="1.1" id="Ebene_1" xmlns="http://www.w3.org/2000/svg" xmlns:xlink="http://www.w3.org/1999/xlink" x="0px" y="0px"
	 viewBox="0 0 32 32" enable-background="new 0 0 32 32" xml:space="preserve">
<g>
	<path d="M24,9.3C22.6,6.1,19.5,4,16,4S9.4,6.1,8,9.3c-3.3,0.1-6,2.9-6,6.3C2,19.2,4.8,22,8.2,22H12v-2H8.2C5.9,20,4,18.1,4,15.7
		c0-2.4,1.9-4.3,4.2-4.3c0,0,0.1,0,0.1,0c0.1,0,0.1,0,0.2,0l0.8,0.1l0.3-0.7C10.5,7.9,13.1,6,16,6s5.5,1.9,6.4,4.7l0.3,0.7l0.8-0.1
		c0.1,0,0.1,0,0.2,0c0,0,0.1,0,0.1,0c2.3,0,4.2,1.9,4.2,4.3c0,2.4-1.9,4.3-4.2,4.3H20v2h3.8c3.4,0,6.2-2.8,6.2-6.3
		C30,12.3,27.3,9.5,24,9.3z"/>
	<polygon points="20.6,16.5 21.8,14.9 16,10.5 10.2,14.9 11.4,16.5 15,13.8 15,29 17,29 17,13.8 	"/>
</g>
</svg>
