<?xml version="1.0" encoding="utf-8"?>
<!-- Generator: Adobe Illustrator 18.0.0, SVG Export Plug-In . SVG Version: 6.00 Build 0)  -->
<!DOCTYPE svg PUBLIC "-//W3C//DTD SVG 1.1//EN" "http://www.w3.org/Graphics/SVG/1.1/DTD/svg11.dtd">
<svg version="1.1" id="Ebene_1" xmlns="http://www.w3.org/2000/svg" xmlns:xlink="http://www.w3.org/1999/xlink" x="0px" y="0px"
	 viewBox="0 0 32 32" enable-background="new 0 0 32 32" xml:space="preserve">
<path d="M27.7,16.8L14.4,3.5L13,4.9l13.3,13.3c2.1,2.1,2.2,5.3,0.4,7.2c-2,2-5.5,2-7.5,0L4.9,11.1C3.7,9.9,3.7,8,4.9,6.8
	s3.1-1.2,4.3,0l14.3,14.3c0.2,0.2,0.3,0.5,0.3,0.8c0,0.2,0,0.4-0.3,0.7c-0.4,0.4-1.1,0.4-1.5,0L8.7,9.2l-1.4,1.4l13.3,13.3
	c1.2,1.2,3.2,1.2,4.3,0c0.6-0.6,0.9-1.3,0.9-2.1c0-0.8-0.3-1.6-0.9-2.2L10.6,5.4c-2-2-5.2-2-7.1,0c-2,2-2,5.2,0,7.1l14.3,14.3
	c1.4,1.4,3.3,2.1,5.2,2.1s3.8-0.7,5.2-2.1C30.8,24.1,30.6,19.6,27.7,16.8z"/>
</svg>
