<?xml version="1.0" encoding="utf-8"?>
<!-- Generator: Adobe Illustrator 18.0.0, SVG Export Plug-In . SVG Version: 6.00 Build 0)  -->
<!DOCTYPE svg PUBLIC "-//W3C//DTD SVG 1.1//EN" "http://www.w3.org/Graphics/SVG/1.1/DTD/svg11.dtd">
<svg version="1.1" id="Ebene_1" xmlns="http://www.w3.org/2000/svg" xmlns:xlink="http://www.w3.org/1999/xlink" x="0px" y="0px"
	 viewBox="0 0 32 32" enable-background="new 0 0 32 32" xml:space="preserve">
<path d="M16,2C8.3,2,2,8.3,2,16s6.3,14,14,14c7.7,0,14-6.3,14-14S23.7,2,16,2z M27.9,15h-4.5c-0.2-4.1-1.2-7.7-2.8-10.1
	C24.7,6.6,27.6,10.5,27.9,15z M15,4.2V15h-4.5C10.7,9.3,13,5.2,15,4.2z M15,17v10.8c-2-1-4.3-5-4.5-10.8H15z M17,27.8V17h4.5
	C21.3,22.7,19,26.8,17,27.8z M17,15V4.2c2,1,4.3,5,4.5,10.8H17z M11.4,4.9C9.7,7.3,8.7,10.9,8.5,15H4.1C4.4,10.5,7.3,6.6,11.4,4.9z
	 M4.1,17h4.5c0.2,4.1,1.2,7.7,2.8,10.1C7.3,25.4,4.4,21.5,4.1,17z M20.6,27.1c1.6-2.4,2.7-5.9,2.8-10.1h4.5
	C27.6,21.5,24.7,25.4,20.6,27.1z"/>
</svg>
