<?xml version="1.0" encoding="utf-8"?>
<!-- Generator: Adobe Illustrator 18.0.0, SVG Export Plug-In . SVG Version: 6.00 Build 0)  -->
<!DOCTYPE svg PUBLIC "-//W3C//DTD SVG 1.1//EN" "http://www.w3.org/Graphics/SVG/1.1/DTD/svg11.dtd">
<svg version="1.1" id="Ebene_1" xmlns="http://www.w3.org/2000/svg" xmlns:xlink="http://www.w3.org/1999/xlink" x="0px" y="0px"
	 viewBox="0 0 32 32" enable-background="new 0 0 32 32" xml:space="preserve">
<g>
	<path d="M22,10.2c0-1.8-1.4-5.3-6.3-5.3c-5,0-6.3,3.1-6.3,5.1h2c0,0,0-3.1,4.3-3.1c4.2,0,4.3,3,4.3,3.3l0,0.2c0,0.1,0.3,2-2.6,4.4
		c-2.5,2-2.4,4.7-2.4,6.7l0,0.5h2l0-0.5c0-1.7,0-3.7,1.7-5.1C22.2,13.4,22.1,10.8,22,10.2z"/>
	<rect x="15" y="24" width="2" height="2"/>
</g>
</svg>
