<?xml version="1.0" encoding="utf-8"?>
<!-- Generator: Adobe Illustrator 18.0.0, SVG Export Plug-In . SVG Version: 6.00 Build 0)  -->
<!DOCTYPE svg PUBLIC "-//W3C//DTD SVG 1.1//EN" "http://www.w3.org/Graphics/SVG/1.1/DTD/svg11.dtd">
<svg version="1.1" id="Ebene_1" xmlns="http://www.w3.org/2000/svg" xmlns:xlink="http://www.w3.org/1999/xlink" x="0px" y="0px"
	 viewBox="0 0 32 32" enable-background="new 0 0 32 32" xml:space="preserve">
<g>
	<path d="M23.8,25H8.2C4.8,25,2,22.2,2,18.7c0-3.4,2.7-6.2,6-6.3C9.4,9.1,12.5,7,16,7c3.5,0,6.6,2.1,8,5.3c3.3,0.1,6,2.9,6,6.3
		C30,22.2,27.2,25,23.8,25z M8.2,14.3c-2.3,0-4.2,1.9-4.2,4.3C4,21.1,5.9,23,8.2,23h15.6c2.3,0,4.2-1.9,4.2-4.3
		c0-2.4-1.9-4.3-4.2-4.3c0,0-0.1,0-0.1,0c-0.1,0-0.1,0-0.2,0l-0.8,0.1l-0.3-0.7C21.5,10.9,18.9,9,16,9c-2.9,0-5.5,1.9-6.4,4.7
		l-0.3,0.7l-0.8-0.1c-0.1,0-0.1,0-0.2,0C8.3,14.3,8.2,14.3,8.2,14.3z"/>
</g>
</svg>
