<?xml version="1.0" encoding="utf-8"?>
<!-- Generator: Adobe Illustrator 18.0.0, SVG Export Plug-In . SVG Version: 6.00 Build 0)  -->
<!DOCTYPE svg PUBLIC "-//W3C//DTD SVG 1.1//EN" "http://www.w3.org/Graphics/SVG/1.1/DTD/svg11.dtd">
<svg version="1.1" id="Ebene_1" xmlns="http://www.w3.org/2000/svg" xmlns:xlink="http://www.w3.org/1999/xlink" x="0px" y="0px"
	 viewBox="0 0 32 32" enable-background="new 0 0 32 32" xml:space="preserve">
<g>
	<path d="M16,19.6c0.6,0,1-0.4,1-1V3c0-0.6-0.4-1-1-1s-1,0.4-1,1v15.6C15,19.2,15.4,19.6,16,19.6z"/>
	<path d="M22.9,3.8l-1,1.7C25.7,7.7,28,11.7,28,16c0,6.6-5.4,12-12,12S4,22.6,4,16c0-4.4,2.4-8.5,6.3-10.6L9.4,3.7
		C4.8,6.1,2,10.8,2,16c0,7.7,6.3,14,14,14s14-6.3,14-14C30,11,27.3,6.3,22.9,3.8z"/>
</g>
</svg>
