<?xml version="1.0" encoding="utf-8"?>
<!-- Generator: Adobe Illustrator 18.0.0, SVG Export Plug-In . SVG Version: 6.00 Build 0)  -->
<!DOCTYPE svg PUBLIC "-//W3C//DTD SVG 1.1//EN" "http://www.w3.org/Graphics/SVG/1.1/DTD/svg11.dtd">
<svg version="1.1" id="Ebene_1" xmlns="http://www.w3.org/2000/svg" xmlns:xlink="http://www.w3.org/1999/xlink" x="0px" y="0px"
	 viewBox="0 0 32 32" enable-background="new 0 0 32 32" xml:space="preserve">
<path d="M30,13.4c0-1.3-1-2.4-2.3-2.4H25V2H7v9H4.3C3,11,2,12.1,2,13.4V26h5v4h18v-4h5V13.4z M9,4h14v7H9V4z M23,28H9v-6h14V28z
	 M28,24h-3v-4H7v4H4V13.4C4,13.2,4.1,13,4.3,13H7h18h2.7c0.2,0,0.3,0.2,0.3,0.4V24z"/>
</svg>
