<?xml version="1.0" encoding="utf-8"?>
<!-- Generator: Adobe Illustrator 18.0.0, SVG Export Plug-In . SVG Version: 6.00 Build 0)  -->
<!DOCTYPE svg PUBLIC "-//W3C//DTD SVG 1.1//EN" "http://www.w3.org/Graphics/SVG/1.1/DTD/svg11.dtd">
<svg version="1.1" id="Ebene_1" xmlns="http://www.w3.org/2000/svg" xmlns:xlink="http://www.w3.org/1999/xlink" x="0px" y="0px"
	 viewBox="0 0 32 32" enable-background="new 0 0 32 32" xml:space="preserve">
<g>
	<path d="M16,2C8.3,2,2,8.3,2,16s6.3,14,14,14s14-6.3,14-14S23.7,2,16,2z M16,28C9.4,28,4,22.6,4,16S9.4,4,16,4s12,5.4,12,12
		S22.6,28,16,28z"/>
	<polygon points="21.8,8.8 16,14.6 10.2,8.8 8.8,10.2 14.6,16 8.8,21.8 10.2,23.2 16,17.4 21.8,23.2 23.2,21.8 17.4,16 23.2,10.2 	
		"/>
</g>
</svg>
