<?xml version="1.0" encoding="utf-8"?>
<!-- Generator: Adobe Illustrator 18.0.0, SVG Export Plug-In . SVG Version: 6.00 Build 0)  -->
<!DOCTYPE svg PUBLIC "-//W3C//DTD SVG 1.1//EN" "http://www.w3.org/Graphics/SVG/1.1/DTD/svg11.dtd">
<svg version="1.1" id="Ebene_1" xmlns="http://www.w3.org/2000/svg" xmlns:xlink="http://www.w3.org/1999/xlink" x="0px" y="0px"
	 viewBox="0 0 32 32" enable-background="new 0 0 32 32" xml:space="preserve">
<path d="M30,7.1c0-0.1,0-0.3-0.1-0.4c-0.2-1-1.1-1.7-2.1-1.7H4.2C3,5,2,6,2,7.2v18.6C2,27,3,28,4.2,28h23.6c1.2,0,2.2-1,2.2-2.2
	L30,7.1C30,7.2,30,7.1,30,7.1z M27.4,7L16,16.2L4.5,7H27.4z M27.8,26H4.2C4.1,26,4,25.9,4,25.8V9.2l12,9.6l12-9.7v16.7
	C28,25.9,27.9,26,27.8,26z"/>
</svg>
