<?xml version="1.0" encoding="utf-8"?>
<!-- Generator: Adobe Illustrator 18.0.0, SVG Export Plug-In . SVG Version: 6.00 Build 0)  -->
<!DOCTYPE svg PUBLIC "-//W3C//DTD SVG 1.1//EN" "http://www.w3.org/Graphics/SVG/1.1/DTD/svg11.dtd">
<svg version="1.1" id="Ebene_1" xmlns="http://www.w3.org/2000/svg" xmlns:xlink="http://www.w3.org/1999/xlink" x="0px" y="0px"
	 viewBox="0 0 1280 1024" enable-background="new 0 0 1280 1024" xml:space="preserve">
<path d="M1033.6,249.6L902.4,118.4C873.6,89.6,816,92.8,784,128L323.2,585.6L204.8,947.2L566.4,832l460.8-460.8
	c19.2-19.2,28.8-41.6,28.8-67.2C1056,281.6,1049.6,262.4,1033.6,249.6z M982.4,323.2l-448,448l-227.2,73.6l73.6-227.2l448-448
	c6.4-6.4,17.7-14.8,28.8-6.4l131.2,131.2c3.2,3.2,3.2,6.4,3.2,6.4C992,310.4,988.8,316.8,982.4,323.2z"/>
</svg>
