<?xml version="1.0" encoding="utf-8"?>
<!-- Generator: Adobe Illustrator 18.0.0, SVG Export Plug-In . SVG Version: 6.00 Build 0)  -->
<!DOCTYPE svg PUBLIC "-//W3C//DTD SVG 1.1//EN" "http://www.w3.org/Graphics/SVG/1.1/DTD/svg11.dtd">
<svg version="1.1" id="Ebene_1" xmlns="http://www.w3.org/2000/svg" xmlns:xlink="http://www.w3.org/1999/xlink" x="0px" y="0px"
	 viewBox="0 0 32 32" enable-background="new 0 0 32 32" xml:space="preserve">
<g>
	<path d="M21,24.7c-0.6-0.5-1.4-0.7-2.1-0.8c-0.8-0.2-1.6-0.4-2.2-0.9l-0.1-0.1c0,0-0.3-0.2-0.3-0.5c-0.1-0.3,0.2-0.7,0.4-0.9l0,0
		c1.4-1.8,2-3.5,2-5.3c0-3.6-2.9-6.5-6.5-6.5c-3.6,0-6.5,2.9-6.5,6.5c0,1.6,0.7,3.4,2,5.2l0,0c0.2,0.3,0.4,0.6,0.4,1
		c0,0.3-0.3,0.4-0.3,0.4c0,0,0,0,0,0L7.6,23c-0.6,0.5-1.4,0.7-2.2,0.9c-0.8,0.2-1.5,0.3-2.1,0.8C1.9,25.7,2,27.1,2,27.2L2,30h20.2
		l0-2.7C22.2,27.1,22.3,25.7,21,24.7z M4,28v-0.1l0-0.7c0,0,0-0.5,0.5-0.9c0.2-0.2,0.8-0.3,1.3-0.4c0.9-0.2,2.1-0.5,3.1-1.3
		c0.3-0.2,0.9-0.7,1.1-1.7c0.2-0.8-0.1-1.7-0.7-2.5l0,0c-1.1-1.5-1.6-2.9-1.6-4.1c0-2.5,2-4.5,4.5-4.5c2.5,0,4.5,2,4.5,4.5
		c0,1.4-0.5,2.6-1.6,4l0,0c-0.8,1.1-0.8,2-0.7,2.5c0.2,1,0.9,1.5,1.1,1.7c1,0.8,2.1,1.1,3.1,1.3c0.5,0.1,1.1,0.2,1.3,0.4
		c0.5,0.4,0.5,0.9,0.5,1l0,0.8H4z"/>
	<path d="M19.9,3.7c2.5,0,4.5,2.1,4.5,4.6c0,1.4-0.5,2.7-1.6,4.1l0,0c-0.8,1.1-0.8,2-0.7,2.5c0.2,1,0.9,1.5,1.1,1.7
		c1,0.8,2.1,1.1,3.1,1.3c0.5,0.1,1.1,0.2,1.3,0.4c0.5,0.4,0.5,0.9,0.5,1V20h-8v2h10l0-2.6c0-0.2,0.1-1.5-1.2-2.6
		c-0.6-0.5-1.4-0.6-2.1-0.8c-0.8-0.2-1.6-0.3-2.2-0.9l-0.1-0.1c0,0-0.3-0.2-0.3-0.5c-0.1-0.3,0.2-0.7,0.4-0.9c1.4-1.8,2-3.5,2-5.3
		c0-3.6-2.9-6.7-6.5-6.7S13.4,5,13.4,8h2C15.4,6,17.4,3.7,19.9,3.7z"/>
</g>
</svg>
