<?xml version="1.0" encoding="utf-8"?>
<!-- Generator: Adobe Illustrator 18.0.0, SVG Export Plug-In . SVG Version: 6.00 Build 0)  -->
<!DOCTYPE svg PUBLIC "-//W3C//DTD SVG 1.1//EN" "http://www.w3.org/Graphics/SVG/1.1/DTD/svg11.dtd">
<svg version="1.1" id="Ebene_1" xmlns="http://www.w3.org/2000/svg" xmlns:xlink="http://www.w3.org/1999/xlink" x="0px" y="0px"
	 viewBox="0 0 32 32" enable-background="new 0 0 32 32" xml:space="preserve">
<g>
	<path d="M27.7,30H4.3C3,30,2,29,2,27.7V4.3C2,3,3,2,4.3,2h23.4C29,2,30,3,30,4.3v23.4C30,29,29,30,27.7,30z M4.3,4
		C4.1,4,4,4.1,4,4.3v23.4C4,27.9,4.1,28,4.3,28h23.4c0.2,0,0.3-0.1,0.3-0.3V4.3C28,4.1,27.9,4,27.7,4H4.3z"/>
</g>
</svg>
