<?xml version="1.0" encoding="utf-8"?>
<!-- Generator: Adobe Illustrator 18.0.0, SVG Export Plug-In . SVG Version: 6.00 Build 0)  -->
<!DOCTYPE svg PUBLIC "-//W3C//DTD SVG 1.1//EN" "http://www.w3.org/Graphics/SVG/1.1/DTD/svg11.dtd">
<svg version="1.1" id="Ebene_1" xmlns="http://www.w3.org/2000/svg" xmlns:xlink="http://www.w3.org/1999/xlink" x="0px" y="0px"
	 viewBox="0 0 32 32" enable-background="new 0 0 32 32" xml:space="preserve">
<path d="M27.7,3H4.3C3,3,2,3.7,2,5v15.6C2,21.8,3,23,4.3,23H15v3H9.5c-0.9,0-1.5,0.1-1.9,0.4C7,26.9,7,28,7,28h18
	c0-0.6,0-1.1-0.4-1.5c-0.4-0.4-1-0.5-1.9-0.5H17v-3h10.7c1.3,0,2.3-1.2,2.3-2.4V5C30,3.7,29,3,27.7,3z M28,20.7
	c0,0.2-0.1,0.3-0.3,0.3H4.3C4.1,21,4,20.9,4,20.7V5.3C4,5.1,4.1,5,4.3,5h23.4C27.9,5,28,5.1,28,5.3V20.7z"/>
</svg>
