<?xml version="1.0" encoding="utf-8"?>
<!-- Generator: Adobe Illustrator 18.0.0, SVG Export Plug-In . SVG Version: 6.00 Build 0)  -->
<!DOCTYPE svg PUBLIC "-//W3C//DTD SVG 1.1//EN" "http://www.w3.org/Graphics/SVG/1.1/DTD/svg11.dtd">
<svg version="1.1" id="Ebene_1" xmlns="http://www.w3.org/2000/svg" xmlns:xlink="http://www.w3.org/1999/xlink" x="0px" y="0px"
	 viewBox="0 0 32 32" enable-background="new 0 0 32 32" xml:space="preserve">
<g>
	<polygon points="17,17 15,17 15,20 12,20 12,22 15,22 15,25 17,25 17,22 20,22 20,20 17,20 	"/>
	<path d="M17.8,2H7.2C6,2,5,3,5,4.3V30h22V11.8L17.8,2z M18,5.1l6.5,6.9H18V5.1z M7,28V4.3C7,4.1,7.1,4,7.2,4H16v10h9v14H7z"/>
</g>
</svg>
