<?xml version="1.0" encoding="utf-8"?>
<!-- Generator: Adobe Illustrator 18.0.0, SVG Export Plug-In . SVG Version: 6.00 Build 0)  -->
<!DOCTYPE svg PUBLIC "-//W3C//DTD SVG 1.1//EN" "http://www.w3.org/Graphics/SVG/1.1/DTD/svg11.dtd">
<svg version="1.1" id="Ebene_1" xmlns="http://www.w3.org/2000/svg" xmlns:xlink="http://www.w3.org/1999/xlink" x="0px" y="0px"
	 viewBox="0 0 32 32" enable-background="new 0 0 32 32" xml:space="preserve">
<g>
	<path d="M15.9,7.9c-5.4,0-10.4,2-13.7,5.6l1.5,1.4c2.9-3.1,7.4-4.9,12.2-4.9c4.9,0,9.5,1.9,12.3,5l1.5-1.3
		C26.5,10.1,21.4,7.9,15.9,7.9z"/>
	<path d="M6.8,18.1l1.5,1.4c1.9-2,4.9-3.2,8-3.2c3.2,0,6.2,1.2,8.1,3.3l1.5-1.3c-2.2-2.5-5.8-4-9.6-4C12.5,14.2,9,15.7,6.8,18.1z"/>
	<path d="M10.6,22.3l1.5,1.4c0.9-0.9,2.3-1.5,3.8-1.5c1.5,0,2.9,0.6,3.8,1.5l1.5-1.3c-1.3-1.4-3.2-2.2-5.3-2.2
		C13.8,20.2,11.9,21,10.6,22.3z"/>
</g>
</svg>
