<?xml version="1.0" encoding="utf-8"?>
<!-- Generator: Adobe Illustrator 18.0.0, SVG Export Plug-In . SVG Version: 6.00 Build 0)  -->
<!DOCTYPE svg PUBLIC "-//W3C//DTD SVG 1.1//EN" "http://www.w3.org/Graphics/SVG/1.1/DTD/svg11.dtd">
<svg version="1.1" id="Ebene_1" xmlns="http://www.w3.org/2000/svg" xmlns:xlink="http://www.w3.org/1999/xlink" x="0px" y="0px"
	 viewBox="0 0 32 32" enable-background="new 0 0 32 32" xml:space="preserve">
<g>
	<path d="M16,11c-3.3,0-6,2.7-6,6s2.7,6,6,6s6-2.7,6-6S19.3,11,16,11z M16,21c-2.2,0-4-1.8-4-4s1.8-4,4-4s4,1.8,4,4S18.2,21,16,21z"
		/>
	<path d="M27.8,10h-2.1l-2.6-5H8.9l-2.6,5H4.2C3,10,2,11,2,12.1V27h28V12.1C30,11,29,10,27.8,10z M28,25H4V12.1
		C4,12.1,4.1,12,4.2,12h3.3l2.6-5h11.8l2.6,5h3.3c0.1,0,0.2,0.1,0.2,0.1V25z"/>
</g>
</svg>
