<?xml version="1.0" encoding="utf-8"?>
<!-- Generator: Adobe Illustrator 18.0.0, SVG Export Plug-In . SVG Version: 6.00 Build 0)  -->
<!DOCTYPE svg PUBLIC "-//W3C//DTD SVG 1.1//EN" "http://www.w3.org/Graphics/SVG/1.1/DTD/svg11.dtd">
<svg version="1.1" id="Ebene_1" xmlns="http://www.w3.org/2000/svg" xmlns:xlink="http://www.w3.org/1999/xlink" x="0px" y="0px"
	 viewBox="0 0 32 32" enable-background="new 0 0 32 32" xml:space="preserve">
<g>
	<path d="M20.5,7C18,7,16,9,16,11.5c0,2.5,2,4.5,4.5,4.5c2.5,0,4.5-2,4.5-4.5C25,9,23,7,20.5,7z M20.5,14c-1.4,0-2.5-1.1-2.5-2.5
		c0-1.4,1.1-2.5,2.5-2.5c1.4,0,2.5,1.1,2.5,2.5C23,12.9,21.9,14,20.5,14z"/>
	<path d="M26.8,3H5.2C4,3,3,4,3,5.2v21.6C3,28,4,29,5.2,29h21.6c1.2,0,2.2-1,2.2-2.2V5.2C29,4,28,3,26.8,3z M5,26.8v-5.6l5-5
		L20.8,27H5.2C5.1,27,5,26.9,5,26.8z M27,26.8c0,0.1-0.1,0.2-0.2,0.2h-3.2L10,13.4l-5,5V5.2C5,5.1,5.1,5,5.2,5h21.6
		C26.9,5,27,5.1,27,5.2V26.8z"/>
</g>
</svg>
