<?xml version="1.0" encoding="utf-8"?>
<!-- Generator: Adobe Illustrator 18.0.0, SVG Export Plug-In . SVG Version: 6.00 Build 0)  -->
<!DOCTYPE svg PUBLIC "-//W3C//DTD SVG 1.1//EN" "http://www.w3.org/Graphics/SVG/1.1/DTD/svg11.dtd">
<svg version="1.1" id="Ebene_1" xmlns="http://www.w3.org/2000/svg" xmlns:xlink="http://www.w3.org/1999/xlink" x="0px" y="0px"
	 viewBox="0 0 32 32" enable-background="new 0 0 32 32" xml:space="preserve">
<g>
	<path d="M25.9,2H6.1C4.9,2,4,3,4,4.2v18.6C4,24,4.9,25,6.1,25H12v-2H6.1C6,23,6,22.9,6,22.8V4.2C6,4.1,6,4,6.1,4h19.8
		C26,4,26,4.1,26,4.2v18.6c0,0.1,0,0.2-0.1,0.2H20v2h5.9c1.2,0,2.1-1,2.1-2.2V4.2C28,3,27.1,2,25.9,2z"/>
	<polygon points="21.5,16.5 22.9,15.1 16,8.2 9.1,15.1 10.5,16.5 15,12 15,30 17,30 17,12 	"/>
</g>
</svg>
