<?xml version="1.0" encoding="utf-8"?>
<!-- Generator: Adobe Illustrator 18.0.0, SVG Export Plug-In . SVG Version: 6.00 Build 0)  -->
<!DOCTYPE svg PUBLIC "-//W3C//DTD SVG 1.1//EN" "http://www.w3.org/Graphics/SVG/1.1/DTD/svg11.dtd">
<svg version="1.1" id="Ebene_1" xmlns="http://www.w3.org/2000/svg" xmlns:xlink="http://www.w3.org/1999/xlink" x="0px" y="0px"
	 viewBox="0 0 32 32" enable-background="new 0 0 32 32" xml:space="preserve">
<g>
	<path d="M25.9,7H20v2h5.9C26,9,26,9.1,26,9.2v18.6c0,0.1,0,0.2-0.1,0.2H6.1C6,28,6,27.9,6,27.8V9.2C6,9.1,6,9,6.1,9H12V7H6.1
		C4.9,7,4,8,4,9.2v18.6C4,29,4.9,30,6.1,30h19.8c1.2,0,2.1-1,2.1-2.2V9.2C28,8,27.1,7,25.9,7z"/>
	<polygon points="10.5,15.5 9.1,16.9 16,23.8 22.9,16.9 21.5,15.5 17,20 17,2 15,2 15,20 	"/>
</g>
</svg>
