<?xml version="1.0" encoding="utf-8"?>
<!-- Generator: Adobe Illustrator 18.0.0, SVG Export Plug-In . SVG Version: 6.00 Build 0)  -->
<!DOCTYPE svg PUBLIC "-//W3C//DTD SVG 1.1//EN" "http://www.w3.org/Graphics/SVG/1.1/DTD/svg11.dtd">
<svg version="1.1" id="Ebene_1" xmlns="http://www.w3.org/2000/svg" xmlns:xlink="http://www.w3.org/1999/xlink" x="0px" y="0px"
	 viewBox="0 0 32 32" enable-background="new 0 0 32 32" xml:space="preserve">
<g>
	<path d="M27.7,5H26v2h1.7C27.9,7,28,7.1,28,7.3v19.4c0,0.2-0.1,0.3-0.3,0.3H4.3C4.1,27,4,26.9,4,26.7V7.3C4,7.1,4.1,7,4.3,7H6V5
		H4.3C3,5,2,6,2,7.3v19.4C2,28,3,29,4.3,29h23.4c1.3,0,2.3-1,2.3-2.3V7.3C30,6,29,5,27.7,5z"/>
	<rect x="12" y="5" width="8" height="2"/>
	<path d="M9,10c0.6,0,1-0.4,1-1V4c0-0.6-0.4-1-1-1S8,3.4,8,4v5C8,9.6,8.4,10,9,10z"/>
	<path d="M23,10c0.6,0,1-0.4,1-1V4c0-0.6-0.4-1-1-1s-1,0.4-1,1v5C22,9.6,22.4,10,23,10z"/>
	<rect x="8" y="17" width="2" height="3"/>
	<rect x="13" y="17" width="2" height="3"/>
	<rect x="18" y="17" width="2" height="3"/>
	<rect x="23" y="17" width="2" height="3"/>
	<rect x="8" y="22" width="2" height="3"/>
	<rect x="13" y="22" width="2" height="3"/>
	<rect x="18" y="22" width="2" height="3"/>
	<rect x="23" y="22" width="2" height="3"/>
</g>
</svg>
