<?xml version="1.0" encoding="utf-8"?>
<!-- Generator: Adobe Illustrator 18.0.0, SVG Export Plug-In . SVG Version: 6.00 Build 0)  -->
<!DOCTYPE svg PUBLIC "-//W3C//DTD SVG 1.1//EN" "http://www.w3.org/Graphics/SVG/1.1/DTD/svg11.dtd">
<svg version="1.1" id="Ebene_1" xmlns="http://www.w3.org/2000/svg" xmlns:xlink="http://www.w3.org/1999/xlink" x="0px" y="0px"
	 viewBox="0 0 32 32" enable-background="new 0 0 32 32" xml:space="preserve">
<g>
	<path d="M16,17c2.2,0,4-1.6,4-3.6V5.6c0-2-1.8-3.6-4-3.6s-4,1.6-4,3.6v7.8C12,15.4,13.8,17,16,17z M14,5.6C14,4.7,14.9,4,16,4
		s2,0.7,2,1.6v7.8c0,0.9-0.9,1.6-2,1.6s-2-0.7-2-1.6V5.6z"/>
	<path d="M23,14v-2h-2v2c0,2.3-2.2,5-5,5c-2.8,0-5-2.7-5-5v-2H9v2c0,3,3,6.4,6,6.9V28h-2.9c-1.5,0-2.1,0.3-2.1,2h1.6c0,0,0,0-0.1,0
		c0,0,0.1,0,0.1,0H12c0,0,0.1,0,0.1,0h7.8c0,0,0.1,0,0.1,0h0.3c0.1,0,0.1,0,0.1,0c0,0,0,0-0.1,0H22c0-1.7-0.6-2-2.1-2H17v-7.1
		C20,20.4,23,17,23,14z"/>
</g>
</svg>
