<?xml version="1.0" encoding="utf-8"?>
<!-- Generator: Adobe Illustrator 18.0.0, SVG Export Plug-In . SVG Version: 6.00 Build 0)  -->
<!DOCTYPE svg PUBLIC "-//W3C//DTD SVG 1.1//EN" "http://www.w3.org/Graphics/SVG/1.1/DTD/svg11.dtd">
<svg version="1.1" id="Ebene_1" xmlns="http://www.w3.org/2000/svg" xmlns:xlink="http://www.w3.org/1999/xlink" x="0px" y="0px"
	 viewBox="0 0 32 32" enable-background="new 0 0 32 32" xml:space="preserve">
<path d="M24.3,13H23V9.5C23,5.2,20,2,16,2S9,5.2,9,9.5V13H7.9C6.8,13,6,14,6,15v15h20V15C26,13.9,25.4,13,24.3,13z M11,9.5
	C11,6.3,13.1,4,16,4s5,2.3,5,5.5V13H11V9.5z M24,28H8V15c0.9,0,16,0,16,0C24,15,24,28,24,28z"/>
</svg>
