<?xml version="1.0" encoding="utf-8"?>
<!-- Generator: Adobe Illustrator 18.0.0, SVG Export Plug-In . SVG Version: 6.00 Build 0)  -->
<!DOCTYPE svg PUBLIC "-//W3C//DTD SVG 1.1//EN" "http://www.w3.org/Graphics/SVG/1.1/DTD/svg11.dtd">
<svg version="1.1" id="Ebene_1" xmlns="http://www.w3.org/2000/svg" xmlns:xlink="http://www.w3.org/1999/xlink" x="0px" y="0px"
	 viewBox="0 0 32 32" enable-background="new 0 0 32 32" xml:space="preserve">
<g>
	<path d="M7,30v-7H4.3C2.9,23,2,22.2,2,21V5.2C2,4,3,3,4.3,3h23.4C29,3,30,4,30,5.2V21c0,1.2-0.9,2-2.3,2H16.3L7,30z M4,21
		c0,0,0.1,0,0.3,0H9v5l6.7-5h12c0.2,0,0.3,0,0.3-0.1l0-15.7C28,5.1,27.9,5,27.7,5H4.3C4.1,5,4,5.1,4,5.2L4,21C4,21,4,21,4,21z"/>
</g>
</svg>
