<?xml version="1.0" encoding="utf-8"?>
<!-- Generator: Adobe Illustrator 18.0.0, SVG Export Plug-In . SVG Version: 6.00 Build 0)  -->
<!DOCTYPE svg PUBLIC "-//W3C//DTD SVG 1.1//EN" "http://www.w3.org/Graphics/SVG/1.1/DTD/svg11.dtd">
<svg version="1.1" id="Ebene_1" xmlns="http://www.w3.org/2000/svg" xmlns:xlink="http://www.w3.org/1999/xlink" x="0px" y="0px"
	 viewBox="0 0 32 32" enable-background="new 0 0 32 32" xml:space="preserve">
<path d="M24.3,13H23h-2h-3h-7V9.5C11,6.3,13.1,4,16,4c1.7,0,3.1,0.8,4,2.1c0.7-0.4,0.9-0.6,1.7-1.1c-1.2-1.8-3.3-3-5.7-3
	c-4,0-7,3.2-7,7.5V13H7.9C6.8,13,6,14,6,15v15h20V15C26,13.9,25.4,13,24.3,13z M24,28H8V15c0-0.1,0,0,0,0h16V28z"/>
</svg>
