<?xml version="1.0" encoding="utf-8"?>
<!-- Generator: Adobe Illustrator 18.0.0, SVG Export Plug-In . SVG Version: 6.00 Build 0)  -->
<!DOCTYPE svg PUBLIC "-//W3C//DTD SVG 1.1//EN" "http://www.w3.org/Graphics/SVG/1.1/DTD/svg11.dtd">
<svg version="1.1" id="Ebene_1" xmlns="http://www.w3.org/2000/svg" xmlns:xlink="http://www.w3.org/1999/xlink" x="0px" y="0px"
	 viewBox="0 0 32 32" enable-background="new 0 0 32 32" xml:space="preserve">
<g>
	<rect x="7" y="13" width="9" height="2"/>
	<rect x="7" y="18" width="9" height="2"/>
	<rect x="7" y="23" width="9" height="2"/>
	<path d="M18.6,7H4.3C3,7,2,8,2,9.3V30h19V9.3C21,8,19.9,7,18.6,7z M19,28H4V9.3C4,9.1,4.1,9,4.3,9h14.4C18.8,9,19,9.1,19,9.3V28z"
		/>
	<path d="M27.7,2H13.3C12,2,11,3,11,4.2V5h2V4.2C13,4.1,13.1,4,13.3,4h14.4C27.9,4,28,4.1,28,4.2V22h-5v2h7V4.2C30,3,29,2,27.7,2z"
		/>
</g>
</svg>
