<?xml version="1.0" encoding="utf-8"?>
<!-- Generator: Adobe Illustrator 18.0.0, SVG Export Plug-In . SVG Version: 6.00 Build 0)  -->
<!DOCTYPE svg PUBLIC "-//W3C//DTD SVG 1.1//EN" "http://www.w3.org/Graphics/SVG/1.1/DTD/svg11.dtd">
<svg version="1.1" id="Ebene_1" xmlns="http://www.w3.org/2000/svg" xmlns:xlink="http://www.w3.org/1999/xlink" x="0px" y="0px"
	 viewBox="0 0 32 32" enable-background="new 0 0 32 32" xml:space="preserve">
<g>
	<g>
		<path d="M26.8,28H5.2C3.9,28,3,27.1,3,25.9V6.1C3,4.9,3.9,4,5.2,4h7.9l1.2,3h12.5C28.1,7,29,7.8,29,9v16.9
			C29,27.1,28.1,28,26.8,28z M5.2,6C5.1,6,5,6,5,6l0,19.9C5,26,5.1,26,5.2,26h21.6c0.1,0,0.2,0,0.2,0L27,9c0,0-0.1,0-0.2,0H12.9
			l-1.2-3H5.2z"/>
	</g>
</g>
</svg>
